<svg width="170" height="42" viewBox="0 0 170 42" fill="none" xmlns="http://www.w3.org/2000/svg">
<g clip-path="url(#clip0_7_4)">
<path d="M67.8191 29.64H66.723V25.8254H67.8191C68.1964 25.8254 68.5208 25.9338 68.7943 26.1483C69.0826 26.3819 69.2289 26.6856 69.2289 27.0615C69.2289 27.3122 69.1504 27.5415 68.9914 27.7518C69.1504 27.9536 69.2289 28.1787 69.2289 28.4251C69.2289 28.7968 69.0826 29.0962 68.79 29.3278C68.5187 29.5359 68.1943 29.64 67.8212 29.64H67.8191ZM67.8169 26.2608H67.1089V29.2046H67.8191C68.0989 29.2046 68.3257 29.1472 68.5017 29.0347C68.7137 28.9051 68.8197 28.7097 68.8197 28.4527C68.8197 28.2934 68.7752 28.1532 68.6883 28.03C68.5886 27.892 68.4508 27.8028 68.2706 27.7603C68.6374 27.6329 68.8218 27.395 68.8218 27.0424C68.8218 26.7812 68.7179 26.5815 68.5102 26.4392C68.3279 26.3203 68.0968 26.2587 67.8191 26.2587L67.8169 26.2608ZM67.9039 27.6817H67.2467V26.4095H67.9039C68.1116 26.4095 68.2918 26.4605 68.4445 26.5646C68.6289 26.6814 68.7201 26.8428 68.7201 27.0488C68.7201 27.2548 68.631 27.4162 68.4508 27.5331C68.2982 27.6329 68.118 27.6817 67.906 27.6817H67.9039ZM67.9039 29.0495H67.2467V27.8346H67.9039C68.1095 27.8346 68.2876 27.8814 68.4445 27.9727C68.6289 28.0853 68.7201 28.2424 68.7201 28.4442C68.7201 28.646 68.6268 28.7989 68.4402 28.9115C68.2876 29.0028 68.1095 29.0495 67.906 29.0495H67.9039ZM67.9081 26.8428H67.6452V27.2463H67.9081C68.1837 27.2463 68.3236 27.1805 68.3236 27.0467C68.3236 26.9129 68.1858 26.8428 67.9081 26.8428ZM67.9081 28.2658H67.6452V28.6162H67.9081C68.1837 28.6162 68.3236 28.5589 68.3236 28.4442C68.3236 28.3826 68.2685 28.3338 68.1561 28.2977C68.0713 28.2764 67.9887 28.2658 67.9081 28.2658Z" fill="#959595"/>
<path d="M71.9807 29.6442L70.7786 28.2977C71.1221 28.2021 71.3722 28.0853 71.5227 27.9472C71.7114 27.7816 71.8047 27.5458 71.8047 27.2421C71.8047 26.9171 71.6902 26.6665 71.4613 26.4945C71.2556 26.3394 70.9843 26.2608 70.6451 26.2608H69.9306V29.6442H69.5342V25.8254H70.6408C71.0818 25.8254 71.4464 25.9508 71.7369 26.2035C72.0464 26.469 72.2033 26.8216 72.2033 27.257C72.2033 27.5161 72.1397 27.7561 72.0146 27.9791C71.8895 28.2 71.7157 28.372 71.4952 28.4931L72.5382 29.6463H71.9828L71.9807 29.6442ZM71.2026 29.6442C71.0182 29.4424 70.768 29.1621 70.45 28.801V29.6442H70.0642V26.4138H70.7256C70.9843 26.4138 71.1984 26.486 71.3722 26.6304C71.5524 26.7854 71.6415 26.9936 71.6415 27.2506C71.6415 27.4162 71.5969 27.5734 71.51 27.7178C71.421 27.8623 71.3023 27.9663 71.1496 28.03C71.1072 28.047 70.9631 28.0725 70.715 28.1044C70.5984 28.1193 70.5412 28.1532 70.5412 28.2106C70.5412 28.2637 70.5793 28.3338 70.6557 28.423L71.7411 29.6421H71.2026V29.6442ZM70.7256 26.8492H70.45V27.7624C70.4924 27.7306 70.5645 27.7051 70.6663 27.6838C70.7447 27.6732 70.821 27.6605 70.8995 27.6477C71.139 27.5989 71.2599 27.4693 71.2599 27.257C71.2599 27.1274 71.2026 27.0254 71.0903 26.9511C70.9906 26.8853 70.8698 26.8513 70.7256 26.8513V26.8492Z" fill="#959595"/>
<path d="M72.7333 29.6442V25.8254H74.4547V26.2608H73.1212V29.2109H74.4547V29.6463H72.7333V29.6442ZM73.6385 26.8492V27.1996H74.3169V27.635H73.2527V26.4159H74.4547V26.8513H73.6385V26.8492ZM73.2527 29.0559V27.7879H74.3169V28.2233H73.6385V28.6269H74.4547V29.0559H73.2527Z" fill="#959595"/>
<path d="M77.1746 29.6336V27.567C77.1746 27.155 77.1068 26.8449 76.9732 26.6368C76.8079 26.3861 76.5323 26.2608 76.1486 26.2608C75.7648 26.2608 75.4956 26.3883 75.3408 26.641C75.2136 26.8449 75.15 27.1529 75.15 27.567V29.6336H74.7536V27.5628C74.7536 27.0191 74.8448 26.6092 75.0292 26.3331C75.256 25.9932 75.627 25.8254 76.1464 25.8254C76.6658 25.8254 77.058 25.989 77.2849 26.3182C77.4693 26.59 77.5605 27.0042 77.5605 27.5628V29.6336H77.1746ZM75.2857 28.0534V27.5607C75.2857 27.257 75.3493 27 75.4765 26.7918C75.6313 26.537 75.856 26.4095 76.1486 26.4095C76.7422 26.4095 77.039 26.7939 77.039 27.5607V28.0534H75.2857ZM76.651 29.6336V28.6481H75.6716V29.6336H75.2857V28.2127H77.039V29.6336H76.6531H76.651ZM76.651 27.5543C76.651 27.0807 76.4835 26.8428 76.1486 26.8428C75.9853 26.8428 75.8624 26.9235 75.7776 27.0828C75.7076 27.2145 75.6716 27.3716 75.6716 27.5543V27.618H76.651V27.5543Z" fill="#959595"/>
<path d="M80.2084 29.6549L79.318 28.6566L78.7307 29.4042C78.6035 29.5699 78.4509 29.6527 78.2749 29.6527C78.1371 29.6527 78.0311 29.5996 77.9569 29.4934C77.8933 29.4021 77.8615 29.2832 77.8615 29.1409V25.8234H78.258V29.143C78.258 29.2004 78.2707 29.228 78.294 29.228C78.3385 29.228 78.3894 29.1855 78.4488 29.1005L79.284 28.028L80.7468 29.6527H80.2062L80.2084 29.6549ZM78.3936 28.9391V25.8255H78.7901V27.7136L80.2084 25.8255H80.7384L78.3915 28.9391H78.3936ZM80.9928 29.6549L79.4218 27.8963L80.961 25.8255H81.5058L79.9455 27.8963L81.5143 29.6549H80.9906H80.9928Z" fill="#959595"/>
<path d="M81.7284 29.6442V25.8254H82.1036V29.6442H81.7284ZM82.2372 29.6442V25.8254H82.6082V29.6442H82.2372Z" fill="#959595"/>
<path d="M83.5071 26.3607C83.4562 26.2927 83.4053 26.2587 83.3587 26.2587C83.3354 26.2587 83.3226 26.2863 83.3226 26.3437V29.6442H82.9262V26.3437C82.9262 26.2014 82.9601 26.0846 83.0258 25.989C83.1 25.8785 83.2082 25.8254 83.3481 25.8254C83.5283 25.8254 83.6746 25.9062 83.7869 26.0697L84.9296 27.7136V25.8254H85.3154V28.9285L83.505 26.3607H83.5071ZM85.4448 29.6931C85.2688 29.6931 85.114 29.5996 84.9826 29.4127L83.8463 27.7688V29.6463H83.4498V26.5348C83.859 27.1274 84.4759 28.0024 85.2985 29.1578C85.3451 29.2258 85.3812 29.2598 85.4045 29.2598C85.4214 29.2598 85.4342 29.2173 85.4448 29.1323C85.449 29.0856 85.449 29.024 85.449 28.9454V25.8276H85.8454V29.1366C85.8454 29.2789 85.8179 29.4 85.7606 29.504C85.6864 29.6315 85.5804 29.6952 85.4426 29.6952L85.4448 29.6931Z" fill="#959595"/>
<path d="M87.887 29.6442C87.3612 29.6442 86.9372 29.4467 86.6171 29.0538C86.3161 28.6864 86.1677 28.2319 86.1677 27.6945C86.1677 27.1572 86.3203 26.7196 86.6235 26.3713C86.9415 26.006 87.3633 25.8234 87.8891 25.8234H88.7371V26.2588H87.8891C87.4799 26.2588 87.1556 26.3947 86.9139 26.6644C86.6722 26.9342 86.5535 27.2782 86.5535 27.6945C86.5535 28.1108 86.6701 28.4676 86.9033 28.7543C87.1535 29.0581 87.4821 29.2089 87.8891 29.2089H88.3491V27.686H87.5011V27.2506H88.735V29.6421H87.887V29.6442ZM87.887 26.8492C87.6432 26.8492 87.4481 26.9363 87.2997 27.1104C87.1513 27.2846 87.0771 27.497 87.0771 27.7476C87.0771 27.9982 87.145 28.1894 87.2785 28.355C87.4121 28.5207 87.5944 28.6099 87.8234 28.6205V28.2234H87.5011V27.788H88.2113V29.0496H87.8891C87.5223 29.0496 87.2298 28.92 87.0093 28.663C86.7973 28.4188 86.6913 28.1129 86.6913 27.7412C86.6913 27.3696 86.7973 27.0595 87.0093 26.8088C87.2277 26.5434 87.5202 26.4117 87.8891 26.4117H88.7371V26.8471H87.8891L87.887 26.8492Z" fill="#959595"/>
<path d="M90.3695 29.6442V25.8254H90.7448V29.6442H90.3695ZM90.8783 29.6442V25.8254H91.2493V29.6442H90.8783Z" fill="#959595"/>
<path d="M92.1482 26.3607C92.0973 26.2927 92.0465 26.2587 91.9998 26.2587C91.9765 26.2587 91.9638 26.2863 91.9638 26.3437V29.6442H91.5673V26.3437C91.5673 26.2014 91.6012 26.0846 91.667 25.989C91.7412 25.8785 91.8493 25.8254 91.9892 25.8254C92.1694 25.8254 92.3157 25.9062 92.428 26.0697L93.5707 27.7136V25.8254H93.9566V28.9285L92.1461 26.3607H92.1482ZM94.0859 29.6931C93.9099 29.6931 93.7552 29.5996 93.6237 29.4127L92.4874 27.7688V29.6463H92.091V26.5348C92.5001 27.1274 93.117 28.0024 93.9396 29.1578C93.9862 29.2258 94.0223 29.2598 94.0477 29.2598C94.0647 29.2598 94.0774 29.2173 94.088 29.1323C94.0922 29.0856 94.0922 29.024 94.0922 28.9454V25.8276H94.4887V29.1366C94.4887 29.2789 94.4611 29.4 94.4039 29.504C94.3297 29.6315 94.2237 29.6952 94.0859 29.6952V29.6931Z" fill="#959595"/>
<path d="M94.8067 26.2608V25.8254H97.2532V26.2608H94.8067ZM95.5741 29.6442V26.8492H94.8067V26.4138H95.96V29.6442H95.5741ZM96.4836 26.8492V29.6442H96.102V26.4138H97.2511V26.8492H96.4836Z" fill="#959595"/>
<path d="M97.5585 29.6442V25.8254H99.2799V26.2608H97.9464V29.2109H99.2799V29.6463H97.5585V29.6442ZM98.4637 26.8492V27.1996H99.1421V27.635H98.0779V26.4159H99.2799V26.8513H98.4637V26.8492ZM98.0779 29.0559V27.7879H99.1421V28.2233H98.4637V28.6269H99.2799V29.0559H98.0779Z" fill="#959595"/>
<path d="M102.023 29.6442L100.821 28.2977C101.165 28.2021 101.413 28.0853 101.567 27.9472C101.756 27.7816 101.849 27.5458 101.849 27.2421C101.849 26.9171 101.735 26.6665 101.506 26.4945C101.3 26.3394 101.029 26.2608 100.69 26.2608H99.9752V29.6442H99.5788V25.8254H100.685C101.126 25.8254 101.491 25.9508 101.781 26.2035C102.091 26.469 102.248 26.8216 102.248 27.257C102.248 27.5161 102.184 27.7561 102.059 27.9791C101.932 28.2 101.76 28.372 101.54 28.4931L102.583 29.6463H102.027L102.023 29.6442ZM101.243 29.6442C101.059 29.4424 100.808 29.1621 100.493 28.801V29.6442H100.107V26.4138H100.768C101.025 26.4138 101.241 26.486 101.415 26.6304C101.595 26.7854 101.684 26.9936 101.684 27.2506C101.684 27.4162 101.639 27.5734 101.553 27.7178C101.463 27.8623 101.345 27.9663 101.192 28.03C101.15 28.047 101.006 28.0725 100.758 28.1044C100.641 28.1193 100.584 28.1532 100.584 28.2106C100.584 28.2637 100.622 28.3338 100.698 28.423L101.784 29.6421H101.245L101.243 29.6442ZM100.768 26.8492H100.493V27.7624C100.535 27.7306 100.607 27.7051 100.709 27.6838C100.787 27.6732 100.864 27.6605 100.942 27.6477C101.182 27.5989 101.302 27.4693 101.302 27.257C101.302 27.1274 101.245 27.0254 101.133 26.9511C101.033 26.8853 100.912 26.8513 100.768 26.8513V26.8492Z" fill="#959595"/>
<path d="M103.367 26.3607C103.316 26.2927 103.265 26.2587 103.219 26.2587C103.196 26.2587 103.183 26.2863 103.183 26.3437V29.6442H102.786V26.3437C102.786 26.2014 102.82 26.0846 102.886 25.989C102.96 25.8785 103.068 25.8254 103.208 25.8254C103.388 25.8254 103.535 25.9062 103.647 26.0697L104.79 27.7136V25.8254H105.176V28.9285L103.365 26.3607H103.367ZM105.305 29.6931C105.129 29.6931 104.974 29.5996 104.843 29.4127L103.706 27.7688V29.6463H103.31V26.5348C103.719 27.1274 104.336 28.0024 105.159 29.1578C105.205 29.2258 105.241 29.2598 105.265 29.2598C105.282 29.2598 105.294 29.2173 105.305 29.1323C105.309 29.0856 105.311 29.024 105.311 28.9454V25.8276H105.708V29.1366C105.708 29.2789 105.68 29.4 105.623 29.504C105.549 29.6315 105.443 29.6952 105.305 29.6952V29.6931Z" fill="#959595"/>
<path d="M108.434 29.6336V27.567C108.434 27.155 108.366 26.8449 108.233 26.6368C108.067 26.3861 107.792 26.2608 107.41 26.2608C107.029 26.2608 106.757 26.3883 106.602 26.641C106.475 26.8449 106.412 27.1529 106.412 27.567V29.6336H106.015V27.5628C106.015 27.0191 106.106 26.6092 106.291 26.3331C106.518 25.9932 106.889 25.8254 107.408 25.8254C107.927 25.8254 108.32 25.989 108.546 26.3182C108.731 26.59 108.822 27.0042 108.822 27.5628V29.6336H108.436H108.434ZM106.543 28.0534V27.5607C106.543 27.257 106.607 27 106.734 26.7918C106.889 26.537 107.113 26.4095 107.406 26.4095C107.999 26.4095 108.296 26.7939 108.296 27.5607V28.0534H106.543ZM107.91 29.6336V28.6481H106.931V29.6336H106.545V28.2127H108.298V29.6336H107.913H107.91ZM107.91 27.5543C107.91 27.0807 107.743 26.8428 107.408 26.8428C107.245 26.8428 107.122 26.9235 107.037 27.0828C106.967 27.2145 106.931 27.3716 106.931 27.5543V27.618H107.91V27.5543Z" fill="#959595"/>
<path d="M109.123 26.2608V25.8254H111.57V26.2608H109.123ZM109.89 29.6442V26.8492H109.123V26.4138H110.276V29.6442H109.89ZM110.8 26.8492V29.6442H110.418V26.4138H111.567V26.8492H110.8Z" fill="#959595"/>
<path d="M111.875 29.6442V25.8254H112.25V29.6442H111.875ZM112.384 29.6442V25.8254H112.755V29.6442H112.384Z" fill="#959595"/>
<path d="M114.851 29.6442H114.762C114.236 29.6442 113.812 29.4467 113.492 29.0495C113.189 28.6821 113.037 28.2297 113.037 27.6945C113.037 27.1274 113.198 26.675 113.522 26.3352C113.844 25.9954 114.289 25.8254 114.853 25.8254C115.379 25.8254 115.801 26.006 116.119 26.367C116.422 26.7132 116.575 27.155 116.575 27.6902C116.575 28.2254 116.424 28.6821 116.125 29.0495C115.803 29.4467 115.381 29.6442 114.856 29.6442H114.851ZM114.76 26.2608C114.351 26.2608 114.024 26.3968 113.783 26.6665C113.541 26.9362 113.42 27.2803 113.42 27.6966C113.42 28.1129 113.539 28.4697 113.774 28.7564C114.024 29.0601 114.353 29.2109 114.758 29.2109H114.847C115.254 29.2109 115.581 29.058 115.833 28.75C116.066 28.4633 116.183 28.1129 116.183 27.6966C116.183 27.2485 116.058 26.898 115.807 26.6431C115.557 26.3883 115.207 26.2608 114.758 26.2608H114.76ZM114.76 29.0559C114.393 29.0559 114.099 28.9285 113.876 28.6736C113.668 28.4293 113.564 28.1214 113.564 27.7497C113.564 27.378 113.668 27.0679 113.876 26.8152C114.101 26.5454 114.395 26.4116 114.76 26.4116H114.849C115.212 26.4116 115.506 26.5454 115.729 26.8152C115.937 27.0637 116.041 27.3716 116.041 27.7433C116.041 28.1469 115.926 28.4654 115.699 28.7012C115.472 28.937 115.159 29.0538 114.76 29.0538V29.0559ZM114.76 26.8492C114.512 26.8492 114.315 26.9362 114.167 27.1104C114.018 27.2846 113.944 27.4991 113.944 27.7518C113.944 28.03 114.024 28.2446 114.186 28.3954C114.347 28.5462 114.567 28.6226 114.849 28.6226C115.097 28.6226 115.294 28.5355 115.443 28.3635C115.587 28.2021 115.659 27.9961 115.659 27.7476C115.659 27.4672 115.581 27.2463 115.422 27.0892C115.263 26.932 115.042 26.8513 114.76 26.8513V26.8492Z" fill="#959595"/>
<path d="M117.444 26.3607C117.393 26.2927 117.342 26.2587 117.296 26.2587C117.272 26.2587 117.26 26.2863 117.26 26.3437V29.6442H116.863V26.3437C116.863 26.2014 116.897 26.0846 116.963 25.989C117.037 25.8785 117.145 25.8254 117.285 25.8254C117.465 25.8254 117.612 25.9062 117.724 26.0697L118.867 27.7136V25.8254H119.252V28.9285L117.442 26.3607H117.444ZM119.382 29.6931C119.206 29.6931 119.051 29.5996 118.92 29.4127L117.783 27.7688V29.6463H117.387V26.5348C117.796 27.1274 118.413 28.0024 119.235 29.1578C119.282 29.2258 119.318 29.2598 119.344 29.2598C119.361 29.2598 119.373 29.2173 119.384 29.1323C119.388 29.0856 119.388 29.024 119.388 28.9454V25.8276H119.785V29.1366C119.785 29.2789 119.757 29.4 119.7 29.504C119.626 29.6315 119.52 29.6952 119.382 29.6952V29.6931Z" fill="#959595"/>
<path d="M122.513 29.6336V27.567C122.513 27.155 122.445 26.8449 122.312 26.6368C122.146 26.3861 121.871 26.2608 121.489 26.2608C121.107 26.2608 120.836 26.3883 120.681 26.641C120.554 26.8449 120.49 27.1529 120.49 27.567V29.6336H120.094V27.5628C120.094 27.0191 120.185 26.6092 120.37 26.3331C120.596 25.9932 120.967 25.8254 121.487 25.8254C122.006 25.8254 122.398 25.989 122.625 26.3182C122.81 26.59 122.901 27.0042 122.901 27.5628V29.6336H122.515H122.513ZM120.622 28.0534V27.5607C120.622 27.257 120.686 27 120.813 26.7918C120.967 26.537 121.192 26.4095 121.485 26.4095C122.078 26.4095 122.375 26.7939 122.375 27.5607V28.0534H120.622ZM121.987 29.6336V28.6481H121.008V29.6336H120.622V28.2127H122.375V29.6336H121.989H121.987ZM121.987 27.5543C121.987 27.0807 121.82 26.8428 121.485 26.8428C121.322 26.8428 121.199 26.9235 121.114 27.0828C121.044 27.2145 121.008 27.3716 121.008 27.5543V27.618H121.987V27.5543Z" fill="#959595"/>
<path d="M124.921 29.6442C124.396 29.6442 123.976 29.487 123.664 29.1748C123.353 28.8605 123.196 28.44 123.196 27.909V25.8276H123.592V27.9069C123.592 28.7777 124.035 29.2109 124.921 29.2109H125.286V29.6463H124.921V29.6442ZM124.921 29.0559C124.12 29.0559 123.719 28.6736 123.719 27.909V25.8254H124.105V27.9005C124.105 28.1617 124.158 28.3444 124.266 28.4506C124.374 28.5568 124.557 28.612 124.815 28.6205H125.286V29.0559H124.921Z" fill="#959595"/>
<path d="M127.51 26.3607C127.459 26.2927 127.408 26.2587 127.361 26.2587C127.338 26.2587 127.325 26.2863 127.325 26.3437V29.6442H126.929V26.3437C126.929 26.2014 126.963 26.0846 127.029 25.989C127.103 25.8785 127.211 25.8254 127.351 25.8254C127.531 25.8254 127.677 25.9062 127.79 26.0697L128.932 27.7136V25.8254H129.318V28.9285L127.508 26.3607H127.51ZM129.447 29.6931C129.271 29.6931 129.117 29.5996 128.985 29.4127L127.849 27.7688V29.6463H127.453V26.5348C127.862 27.1274 128.479 28.0024 129.301 29.1578C129.348 29.2258 129.384 29.2598 129.409 29.2598C129.426 29.2598 129.439 29.2173 129.45 29.1323C129.454 29.0856 129.454 29.024 129.454 28.9454V25.8276H129.85V29.1366C129.85 29.2789 129.823 29.4 129.765 29.504C129.691 29.6315 129.585 29.6952 129.447 29.6952V29.6931Z" fill="#959595"/>
<path d="M130.168 29.6442V25.8254H131.89V26.2608H130.556V29.2109H131.89V29.6463H130.168V29.6442ZM131.074 26.8492V27.1996H131.752V27.635H130.688V26.4159H131.89V26.8513H131.074V26.8492ZM130.688 29.0559V27.7879H131.752V28.2233H131.074V28.6269H131.89V29.0559H130.688Z" fill="#959595"/>
<path d="M135.494 29.64C135.091 29.64 134.779 29.5423 134.557 29.349C134.33 29.5444 134.008 29.64 133.588 29.64C133.062 29.64 132.687 29.4722 132.466 29.1366C132.28 28.8605 132.187 28.4506 132.187 27.9069V25.8276H132.583V27.9047C132.583 28.3168 132.647 28.6247 132.774 28.8265C132.933 29.0814 133.204 29.2088 133.588 29.2088C133.863 29.2088 134.073 29.1493 134.222 29.0283C134.387 28.8945 134.499 28.6651 134.561 28.3444C134.629 28.6736 134.731 28.8987 134.868 29.024C135.006 29.1472 135.214 29.2088 135.492 29.2088C135.884 29.2088 136.159 29.0856 136.323 28.8371C136.456 28.6354 136.524 28.3253 136.524 27.9047V25.8276H136.92V27.9069C136.92 28.4654 136.829 28.8817 136.645 29.1536C136.418 29.4785 136.036 29.6421 135.496 29.6421L135.494 29.64ZM134.415 28.3614C134.345 28.6162 134.256 28.7904 134.15 28.886C134.029 28.9985 133.842 29.0559 133.588 29.0559C133.291 29.0559 133.066 28.9285 132.909 28.6736C132.778 28.4654 132.714 28.2085 132.714 27.9047V25.8254H133.111V27.9005C133.111 28.0831 133.145 28.2424 133.21 28.3762C133.3 28.5377 133.425 28.6205 133.586 28.6205C133.921 28.6205 134.088 28.3805 134.088 27.9005V25.8254H134.485V27.9047C134.485 28.0216 134.459 28.1745 134.41 28.3614H134.415ZM135.494 29.0559C135.097 29.0559 134.832 28.818 134.694 28.3444C134.646 28.1745 134.62 28.0279 134.62 27.9047V25.8254H135.017V27.9005C135.017 28.0831 135.051 28.2424 135.116 28.3762C135.205 28.5377 135.33 28.6205 135.492 28.6205C135.827 28.6205 135.994 28.3805 135.994 27.9005V25.8254H136.39V27.9047C136.39 28.6715 136.089 29.0559 135.489 29.0559H135.494Z" fill="#959595"/>
<path d="M138.305 26.2609C138.087 26.2609 137.906 26.3246 137.764 26.4542C137.622 26.5837 137.552 26.7558 137.552 26.9745C137.552 27.1933 137.622 27.3632 137.764 27.4949C137.906 27.6265 138.084 27.6924 138.305 27.6924H138.468C138.674 27.6924 138.845 27.7519 138.987 27.8687C139.142 27.9919 139.221 28.1575 139.221 28.3635C139.221 28.5696 139.146 28.7416 139 28.8669C138.854 28.9922 138.676 29.0559 138.468 29.0559H137.234V28.6205H138.464C138.559 28.6205 138.642 28.5993 138.714 28.5547C138.786 28.5101 138.822 28.4464 138.822 28.3635C138.822 28.2552 138.756 28.183 138.627 28.149C138.568 28.1342 138.457 28.1278 138.301 28.1278C137.966 28.1278 137.694 28.0195 137.484 27.8028C137.275 27.5862 137.171 27.3101 137.171 26.9724C137.171 26.6347 137.275 26.3565 137.484 26.1419C137.694 25.9296 137.968 25.8234 138.303 25.8234H139.515V26.2588H138.303L138.305 26.2609ZM138.47 29.6442H137.236V29.2089H138.47C138.718 29.2089 138.92 29.1324 139.077 28.9795C139.233 28.8265 139.312 28.6269 139.312 28.3805C139.312 28.1342 139.233 27.9324 139.077 27.7773C138.92 27.6202 138.716 27.5437 138.47 27.5437H138.307C138.144 27.5437 138.012 27.4906 137.908 27.3865C137.805 27.2825 137.752 27.1487 137.752 26.9851C137.752 26.8216 137.805 26.6878 137.908 26.5795C138.012 26.4712 138.146 26.4181 138.307 26.4181H139.52V26.8428H138.307C138.19 26.8428 138.133 26.8895 138.133 26.9809C138.133 27.0658 138.212 27.1083 138.366 27.1083H138.472C138.833 27.1083 139.127 27.2294 139.354 27.4715C139.581 27.7136 139.696 28.0173 139.696 28.3805C139.696 28.7437 139.583 29.0517 139.356 29.2874C139.13 29.5253 138.835 29.6421 138.472 29.6421L138.47 29.6442Z" fill="#959595"/>
<path d="M141.281 29.6442V25.8254H141.656V29.6442H141.281ZM141.79 29.6442V25.8254H142.161V29.6442H141.79Z" fill="#959595"/>
<path d="M143.06 26.3607C143.009 26.2927 142.958 26.2587 142.912 26.2587C142.888 26.2587 142.876 26.2863 142.876 26.3437V29.6442H142.479V26.3437C142.479 26.2014 142.513 26.0846 142.579 25.989C142.653 25.8785 142.761 25.8254 142.901 25.8254C143.081 25.8254 143.227 25.9062 143.34 26.0697L144.483 27.7136V25.8254H144.868V28.9285L143.058 26.3607H143.06ZM144.998 29.6931C144.822 29.6931 144.667 29.5996 144.536 29.4127L143.399 27.7688V29.6463H143.003V26.5348C143.412 27.1274 144.029 28.0024 144.851 29.1578C144.898 29.2258 144.934 29.2598 144.957 29.2598C144.974 29.2598 144.987 29.2173 144.998 29.1323C145.002 29.0856 145.004 29.024 145.004 28.9454V25.8276H145.4V29.1366C145.4 29.2789 145.373 29.4 145.316 29.504C145.241 29.6315 145.135 29.6952 144.998 29.6952V29.6931Z" fill="#959595"/>
<path d="M149.471 29.6442L148.269 28.2977C148.612 28.2021 148.86 28.0853 149.015 27.9472C149.204 27.7816 149.297 27.5458 149.297 27.2421C149.297 26.9171 149.183 26.6665 148.954 26.4945C148.748 26.3394 148.477 26.2608 148.137 26.2608H147.423V29.6442H147.026V25.8254H148.133C148.574 25.8254 148.939 25.9508 149.229 26.2035C149.539 26.469 149.696 26.8216 149.696 27.257C149.696 27.5161 149.632 27.7561 149.507 27.9791C149.38 28.2 149.208 28.372 148.987 28.4931L150.031 29.6463H149.475L149.471 29.6442ZM148.693 29.6442C148.508 29.4424 148.258 29.1621 147.942 28.801V29.6442H147.556V26.4138H148.218C148.474 26.4138 148.691 26.486 148.865 26.6304C149.045 26.7854 149.134 26.9936 149.134 27.2506C149.134 27.4162 149.089 27.5734 149.002 27.7178C148.913 27.8623 148.795 27.9663 148.642 28.03C148.6 28.047 148.455 28.0725 148.207 28.1044C148.091 28.1193 148.033 28.1532 148.033 28.2106C148.033 28.2637 148.072 28.3338 148.148 28.423L149.233 29.6421H148.695L148.693 29.6442ZM148.218 26.8492H147.942V27.7624C147.985 27.7306 148.057 27.7051 148.159 27.6838C148.237 27.6732 148.313 27.6605 148.392 27.6477C148.631 27.5989 148.752 27.4693 148.752 27.257C148.752 27.1274 148.695 27.0254 148.583 26.9511C148.483 26.8853 148.362 26.8513 148.218 26.8513V26.8492Z" fill="#959595"/>
<path d="M150.224 29.6442V25.8254H151.945V26.2608H150.611V29.2109H151.945V29.6463H150.224V29.6442ZM151.129 26.8492V27.1996H151.807V27.635H150.743V26.4159H151.945V26.8513H151.129V26.8492ZM150.743 29.0559V27.7879H151.807V28.2233H151.129V28.6269H151.945V29.0559H150.743Z" fill="#959595"/>
<path d="M154.665 29.6336V27.567C154.665 27.155 154.597 26.8449 154.463 26.6368C154.298 26.3861 154.023 26.2608 153.641 26.2608C153.259 26.2608 152.988 26.3883 152.833 26.641C152.706 26.8449 152.642 27.1529 152.642 27.567V29.6336H152.246V27.5628C152.246 27.0191 152.337 26.6092 152.522 26.3331C152.748 25.9932 153.119 25.8254 153.639 25.8254C154.158 25.8254 154.55 25.989 154.777 26.3182C154.962 26.59 155.053 27.0042 155.053 27.5628V29.6336H154.667H154.665ZM152.776 28.0534V27.5607C152.776 27.257 152.84 27 152.967 26.7918C153.122 26.537 153.346 26.4095 153.639 26.4095C154.232 26.4095 154.529 26.7939 154.529 27.5607V28.0534H152.776ZM154.141 29.6336V28.6481H153.162V29.6336H152.776V28.2127H154.529V29.6336H154.143H154.141ZM154.141 27.5543C154.141 27.0807 153.974 26.8428 153.639 26.8428C153.476 26.8428 153.353 26.9235 153.268 27.0828C153.198 27.2145 153.162 27.3716 153.162 27.5543V27.618H154.141V27.5543Z" fill="#959595"/>
<path d="M157.075 29.6442C156.55 29.6442 156.13 29.487 155.818 29.1748C155.506 28.8605 155.35 28.44 155.35 27.909V25.8276H155.746V27.9069C155.746 28.7777 156.189 29.2109 157.075 29.2109H157.44V29.6463H157.075V29.6442ZM157.075 29.0559C156.274 29.0559 155.873 28.6736 155.873 27.909V25.8254H156.259V27.9005C156.259 28.1617 156.312 28.3444 156.42 28.4506C156.528 28.5568 156.711 28.612 156.967 28.6205H157.438V29.0559H157.073H157.075Z" fill="#959595"/>
<path d="M159.07 26.2608V25.8254H161.517V26.2608H159.07ZM159.838 29.6442V26.8492H159.07V26.4138H160.226V29.6442H159.84H159.838ZM160.749 26.8492V29.6442H160.368V26.4138H161.517V26.8492H160.749Z" fill="#959595"/>
<path d="M161.824 29.6442V25.8254H162.199V29.6442H161.824ZM162.333 29.6442V25.8254H162.704V29.6442H162.333Z" fill="#959595"/>
<path d="M167.336 29.6336V27.567C167.336 27.1508 167.268 26.8407 167.135 26.6368C166.972 26.3861 166.696 26.2608 166.304 26.2608C166.026 26.2608 165.818 26.3224 165.68 26.4435C165.543 26.5667 165.441 26.7897 165.373 27.1146C165.314 26.7961 165.201 26.5709 165.034 26.4392C164.885 26.3203 164.673 26.2608 164.4 26.2608C164.016 26.2608 163.745 26.3883 163.586 26.641C163.459 26.8449 163.395 27.1529 163.395 27.567V29.6336H162.999V27.5628C162.999 27.0191 163.092 26.6092 163.278 26.3331C163.501 25.9932 163.874 25.8254 164.4 25.8254C164.82 25.8254 165.142 25.921 165.369 26.1122C165.591 25.921 165.903 25.8254 166.306 25.8254C166.842 25.8254 167.224 25.989 167.449 26.3182C167.635 26.59 167.728 27.0042 167.728 27.5628V29.6336H167.332H167.336ZM164.905 29.6336V27.5628C164.905 27.0828 164.737 26.8428 164.402 26.8428C164.239 26.8428 164.114 26.9235 164.027 27.087C163.959 27.2208 163.927 27.3801 163.927 27.5628V29.6336H163.531V27.5607C163.531 27.257 163.596 27 163.726 26.7918C163.881 26.537 164.107 26.4095 164.404 26.4095C164.661 26.4095 164.852 26.4647 164.97 26.5731C165.072 26.6686 165.159 26.8449 165.229 27.104C165.278 27.2909 165.303 27.4439 165.303 27.5607V29.6336H164.907H164.905ZM166.813 29.6336V27.5628C166.813 27.0828 166.645 26.8428 166.31 26.8428C166.147 26.8428 166.022 26.9235 165.935 27.087C165.867 27.2208 165.835 27.3801 165.835 27.5628V29.6336H165.439V27.5607C165.439 27.4375 165.464 27.2867 165.519 27.1104C165.653 26.6431 165.918 26.4095 166.314 26.4095C166.914 26.4095 167.215 26.7939 167.215 27.5607V29.6336H166.819H166.813Z" fill="#959595"/>
<path d="M168.034 29.6442V25.8254H169.755V26.2608H168.422V29.2109H169.755V29.6463H168.034V29.6442ZM168.939 26.8492V27.1996H169.617V27.635H168.553V26.4159H169.755V26.8513H168.939V26.8492ZM168.553 29.0559V27.7879H169.617V28.2233H168.939V28.6269H169.755V29.0559H168.553Z" fill="#959595"/>
<path d="M80.2147 24.3685V17.9352C80.2147 16.6418 80.0069 15.6754 79.5893 15.0403C79.0847 14.2609 78.224 13.8722 77.0071 13.8722C76.1401 13.8722 75.4935 14.0634 75.0652 14.4435C74.637 14.8237 74.319 15.5204 74.1112 16.5292C73.9247 15.5395 73.5727 14.8386 73.0576 14.4265C72.5975 14.057 71.9382 13.8722 71.0839 13.8722C69.8882 13.8722 69.0444 14.2672 68.5505 15.0573C68.1561 15.6945 67.959 16.6524 67.959 17.9352V24.3685H66.723V17.9246C66.723 16.2318 67.0135 14.9575 67.5965 14.1016C68.2876 13.046 69.4515 12.5193 71.0881 12.5193C72.394 12.5193 73.3989 12.8166 74.1027 13.4113C74.7939 12.8166 75.7669 12.5193 77.0177 12.5193C78.6862 12.5193 79.8734 13.0311 80.5751 14.0527C81.1581 14.898 81.4485 16.1894 81.4485 17.9246V24.3685H80.2126H80.2147ZM72.6548 24.3685V17.9288C72.6548 16.4357 72.1333 15.6881 71.0902 15.6881C70.5857 15.6881 70.1956 15.9409 69.92 16.4464C69.7122 16.8648 69.6062 17.3575 69.6062 17.9288V24.3685H68.3703V17.9161C68.3703 16.971 68.5738 16.1724 68.9787 15.5225C69.4621 14.7303 70.1638 14.3352 71.0881 14.3352C71.8895 14.3352 72.4767 14.5051 72.8498 14.8471C73.1678 15.1444 73.4371 15.6945 73.6575 16.4973C73.8123 17.0814 73.8886 17.5529 73.8886 17.9161V24.3685H72.6527H72.6548ZM78.5844 24.3685V17.9288C78.5844 16.4357 78.0629 15.6881 77.0199 15.6881C76.5153 15.6881 76.1252 15.9409 75.8496 16.4464C75.6419 16.8648 75.5359 17.3575 75.5359 17.9288V24.3685H74.2999V17.9161C74.2999 17.5317 74.3826 17.0644 74.5479 16.5122C74.9656 15.0595 75.7881 14.3331 77.0199 14.3331C78.8876 14.3331 79.8204 15.5267 79.8204 17.914V24.3664H78.5844V24.3685Z" fill="#273A8C"/>
<path d="M86.8206 24.4025C85.1522 24.4025 83.965 23.8949 83.2633 22.8818C82.693 22.0343 82.4068 20.7388 82.4068 18.9972V12.5193H83.6428V18.9887C83.6428 20.2757 83.8505 21.2379 84.266 21.8772C84.7791 22.6588 85.6313 23.0496 86.8228 23.0496C88.0142 23.0496 88.8283 22.6524 89.3307 21.8623C89.7229 21.2251 89.9201 20.2673 89.9201 18.9908V12.5214H91.156V18.9993C91.156 20.6729 90.8656 21.9472 90.2826 22.8159C89.5788 23.8736 88.4276 24.4025 86.8228 24.4025H86.8206ZM86.8206 22.5696C84.9762 22.5696 84.054 21.3802 84.054 18.9993V12.5193H85.2561V18.9887C85.2561 20.4733 85.7776 21.2166 86.8206 21.2166C87.3146 21.2166 87.6983 20.9639 87.9739 20.4584C88.1944 20.04 88.3025 19.5515 88.3025 18.9887V12.5193H89.5046V18.9993C89.5046 19.9465 89.301 20.7451 88.8961 21.3972C88.4128 22.1788 87.7216 22.5717 86.8206 22.5717V22.5696Z" fill="#273A8C"/>
<path d="M93.9693 14.1865C93.8103 13.9763 93.6555 13.8722 93.505 13.8722C93.4308 13.8722 93.3926 13.9593 93.3926 14.1355V24.4003H92.1567V14.1334C92.1567 13.6938 92.2606 13.3263 92.4704 13.029C92.7015 12.6892 93.0365 12.5171 93.4753 12.5171C94.035 12.5171 94.4908 12.7699 94.8427 13.2754L98.4001 18.3918V12.515H99.6021V22.1702L93.9672 14.1823L93.9693 14.1865ZM99.9964 24.5511C99.4474 24.5511 98.9682 24.2601 98.5612 23.6782L95.0229 18.5617V24.4003H93.787V14.7196C95.0611 16.5632 96.9776 19.2839 99.5385 22.8796C99.6869 23.0899 99.7972 23.194 99.8714 23.194C99.9244 23.194 99.9668 23.0623 99.9986 22.7968C100.009 22.6545 100.016 22.4612 100.016 22.2191V12.5171H101.251V22.8138C101.251 23.2556 101.162 23.6336 100.986 23.9543C100.755 24.3515 100.425 24.549 99.9964 24.549V24.5511Z" fill="#273A8C"/>
<path d="M105.502 24.4025H102.191V12.5193H105.502C107.139 12.5193 108.445 13.0864 109.422 14.2205C110.355 15.2995 110.823 16.6715 110.823 18.3366C110.823 20.0018 110.361 21.4057 109.439 22.5504C108.44 23.7844 107.126 24.4025 105.502 24.4025ZM105.513 13.8722H103.427V23.0474H105.513C106.761 23.0474 107.775 22.5759 108.553 21.6308C109.276 20.7409 109.638 19.6428 109.638 18.3366C109.638 17.0304 109.265 15.9727 108.521 15.1317C107.777 14.2906 106.774 13.8722 105.515 13.8722H105.513ZM105.502 22.5696H103.838V14.3501H105.502C106.632 14.3501 107.539 14.7685 108.22 15.6053C108.869 16.3763 109.191 17.3384 109.191 18.4938C109.191 19.6492 108.866 20.6071 108.22 21.3653C107.539 22.1681 106.632 22.5696 105.502 22.5696ZM105.502 15.7051H105.04V21.2166H105.502C106.259 21.2166 106.874 20.9533 107.346 20.4287C107.785 19.9253 108.006 19.2796 108.006 18.4938C108.006 17.708 107.777 17.058 107.323 16.5165C106.867 15.9749 106.261 15.7051 105.502 15.7051Z" fill="#273A8C"/>
<path d="M116.176 24.4025C114.508 24.4025 113.321 23.8949 112.619 22.8818C112.049 22.0343 111.762 20.7388 111.762 18.9972V12.5193H112.998V18.9887C112.998 20.2757 113.206 21.2379 113.622 21.8772C114.135 22.6588 114.987 23.0496 116.178 23.0496C117.37 23.0496 118.184 22.6524 118.686 21.8623C119.079 21.2251 119.276 20.2673 119.276 18.9908V12.5214H120.512V18.9993C120.512 20.6729 120.221 21.9472 119.638 22.8159C118.934 23.8736 117.783 24.4025 116.178 24.4025H116.176ZM116.176 22.5696C114.332 22.5696 113.41 21.3802 113.41 18.9993V12.5193H114.612V18.9887C114.612 20.4733 115.133 21.2166 116.176 21.2166C116.67 21.2166 117.054 20.9639 117.33 20.4584C117.55 20.04 117.658 19.5515 117.658 18.9887V12.5193H118.86V18.9993C118.86 19.9465 118.657 20.7451 118.252 21.3972C117.768 22.1788 117.077 22.5717 116.176 22.5717V22.5696Z" fill="#273A8C"/>
<path d="M124.873 13.8723C124.192 13.8723 123.632 14.0719 123.191 14.4733C122.753 14.8726 122.532 15.4142 122.532 16.0917C122.532 16.7693 122.753 17.3002 123.191 17.7123C123.63 18.1243 124.19 18.3282 124.873 18.3282H125.383C126.019 18.3282 126.558 18.5108 126.999 18.874C127.482 19.2606 127.724 19.7746 127.724 20.4138C127.724 21.0531 127.495 21.5884 127.041 21.9792C126.586 22.3721 126.034 22.5675 125.386 22.5675H121.548V21.2146H125.373C125.668 21.2146 125.928 21.1466 126.153 21.0107C126.378 20.8747 126.49 20.6751 126.49 20.4138C126.49 20.0761 126.287 19.8531 125.882 19.7448C125.695 19.7023 125.356 19.679 124.864 19.679C123.823 19.679 122.979 19.3434 122.326 18.6701C121.676 17.9969 121.349 17.1367 121.349 16.0896C121.349 15.0425 121.676 14.1717 122.329 13.5091C122.982 12.8464 123.83 12.5172 124.873 12.5172H128.644V13.8701H124.873V13.8723ZM125.383 24.4025H121.546V23.0496H125.383C126.151 23.0496 126.781 22.8117 127.27 22.336C127.758 21.8602 128.004 21.24 128.004 20.4754C128.004 19.7108 127.76 19.0843 127.27 18.5979C126.781 18.1115 126.153 17.8673 125.383 17.8673H124.873C124.368 17.8673 123.952 17.7059 123.628 17.3809C123.304 17.056 123.143 16.6418 123.143 16.1342C123.143 15.6266 123.304 15.2082 123.628 14.8726C123.952 14.537 124.366 14.3692 124.873 14.3692H128.644V15.6903H124.873C124.51 15.6903 124.33 15.8326 124.33 16.1193C124.33 16.3827 124.572 16.5144 125.055 16.5144H125.383C126.503 16.5144 127.419 16.8924 128.127 17.6443C128.835 18.3983 129.189 19.3413 129.189 20.4754C129.189 21.6096 128.837 22.5611 128.135 23.2981C127.431 24.0351 126.516 24.4047 125.383 24.4047V24.4025Z" fill="#273A8C"/>
<path d="M131.856 14.1865C131.697 13.9763 131.542 13.8722 131.392 13.8722C131.317 13.8722 131.279 13.9593 131.279 14.1355V24.4003H130.043V14.1334C130.043 13.6938 130.147 13.3263 130.357 13.029C130.588 12.6892 130.923 12.5171 131.362 12.5171C131.922 12.5171 132.377 12.7699 132.729 13.2754L136.287 18.3918V12.515H137.489V22.1702L131.854 14.1823L131.856 14.1865ZM137.885 24.5511C137.336 24.5511 136.857 24.2601 136.45 23.6782L132.912 18.5617V24.4003H131.676V14.7196C132.95 16.5632 134.866 19.2839 137.427 22.8796C137.576 23.0899 137.686 23.194 137.76 23.194C137.813 23.194 137.855 23.0623 137.887 22.7968C137.898 22.6545 137.904 22.4612 137.904 22.2191V12.5171H139.14V22.8138C139.14 23.2556 139.053 23.6336 138.875 23.9543C138.644 24.3515 138.313 24.549 137.885 24.549V24.5511Z" fill="#959595"/>
<path d="M140.128 24.4025V12.5193H145.481V13.8722H141.33V23.0474H145.481V24.4003H140.128V24.4025ZM142.943 15.7051V16.7947H145.053V18.1476H141.741V14.3522H145.481V15.7051H142.943ZM141.741 22.5696V18.6255H145.053V19.9784H142.943V21.2336H145.481V22.5696H141.741Z" fill="#959595"/>
<path d="M156.7 24.3855C155.447 24.3855 154.476 24.0839 153.785 23.4786C153.081 24.0839 152.076 24.3855 150.77 24.3855C149.134 24.3855 147.97 23.863 147.279 22.818C146.696 21.96 146.405 20.6835 146.405 18.9887V12.5193H147.641V18.978C147.641 20.263 147.839 21.2188 148.233 21.8453C148.727 22.6354 149.571 23.0326 150.766 23.0326C151.623 23.0326 152.28 22.8457 152.74 22.4719C153.255 22.0534 153.607 21.3441 153.794 20.3437C154.001 21.3674 154.319 22.0704 154.748 22.457C155.176 22.8414 155.822 23.0347 156.69 23.0347C157.906 23.0347 158.767 22.6503 159.272 21.8814C159.687 21.2549 159.897 20.2885 159.897 18.9823V12.5235H161.133V18.9929C161.133 20.7324 160.847 22.0237 160.277 22.8711C159.573 23.8842 158.381 24.3897 156.702 24.3897L156.7 24.3855ZM153.338 20.4074C153.117 21.1996 152.844 21.7434 152.515 22.0407C152.142 22.3933 151.559 22.5696 150.768 22.5696C149.846 22.5696 149.142 22.1745 148.659 21.3823C148.252 20.7324 148.048 19.9359 148.048 18.9887V12.5193H149.284V18.9759C149.284 19.5473 149.388 20.0421 149.598 20.4584C149.872 20.9639 150.262 21.2166 150.768 21.2166C151.811 21.2166 152.333 20.469 152.333 18.9759V12.5193H153.569V18.9887C153.569 19.3519 153.493 19.8255 153.338 20.4074ZM156.7 22.5696C155.471 22.5696 154.642 21.8326 154.213 20.3586C154.059 19.8297 153.982 19.3731 153.982 18.9887V12.5193H155.218V18.9759C155.218 19.5473 155.322 20.0421 155.532 20.4584C155.805 20.9639 156.196 21.2166 156.702 21.2166C157.745 21.2166 158.267 20.469 158.267 18.9759V12.5193H159.503V18.9887C159.503 21.3759 158.57 22.5696 156.702 22.5696H156.7Z" fill="#959595"/>
<path d="M165.447 13.8723C164.767 13.8723 164.207 14.0719 163.766 14.4733C163.327 14.8726 163.107 15.4142 163.107 16.0917C163.107 16.7693 163.327 17.3002 163.766 17.7123C164.205 18.1243 164.765 18.3282 165.447 18.3282H165.958C166.594 18.3282 167.133 18.5108 167.574 18.874C168.057 19.2606 168.299 19.7746 168.299 20.4138C168.299 21.0531 168.07 21.5884 167.616 21.9792C167.16 22.3721 166.609 22.5675 165.96 22.5675H162.123V21.2146H165.947C166.242 21.2146 166.503 21.1466 166.728 21.0107C166.952 20.8747 167.065 20.6751 167.065 20.4138C167.065 20.0761 166.863 19.8531 166.456 19.7448C166.27 19.7023 165.931 19.679 165.439 19.679C164.398 19.679 163.554 19.3434 162.901 18.6701C162.25 17.9969 161.924 17.1367 161.924 16.0896C161.924 15.0425 162.25 14.1717 162.903 13.5091C163.556 12.8464 164.404 12.5172 165.447 12.5172H169.219V13.8701H165.447V13.8723ZM165.956 24.4025H162.119V23.0496H165.956C166.723 23.0496 167.353 22.8117 167.843 22.336C168.33 21.8602 168.576 21.24 168.576 20.4754C168.576 19.7108 168.332 19.0843 167.843 18.5979C167.353 18.1115 166.726 17.8673 165.956 17.8673H165.445C164.94 17.8673 164.525 17.7059 164.201 17.3809C163.876 17.056 163.715 16.6418 163.715 16.1342C163.715 15.6266 163.876 15.2082 164.201 14.8726C164.525 14.537 164.938 14.3692 165.445 14.3692H169.217V15.6903H165.445C165.083 15.6903 164.902 15.8326 164.902 16.1193C164.902 16.3827 165.144 16.5144 165.627 16.5144H165.956C167.075 16.5144 167.991 16.8924 168.699 17.6443C169.407 18.3983 169.761 19.3413 169.761 20.4754C169.761 21.6096 169.409 22.5611 168.708 23.2981C168.004 24.0351 167.088 24.4047 165.956 24.4047V24.4025Z" fill="#959595"/>
<path d="M32.1267 10.3975V20.2503L26.2416 11.7844C25.6014 10.8648 24.7576 10.3975 23.7358 10.3975C23.2842 10.3975 22.8878 10.4973 22.5507 10.6949H22.5486C22.4087 10.7777 22.2772 10.8796 22.1585 10.9943C22.0504 11.0984 21.9529 11.2173 21.8617 11.3511C21.4801 11.8927 21.2893 12.566 21.2893 13.3603V31.3476H23.7549V13.3646C23.7549 13.1586 23.7867 13.0885 23.7994 13.0672C24.0029 13.0715 24.2255 13.2329 24.4672 13.5472L26.1971 16.0003L34.5393 27.8219V10.3954H32.131L32.1267 10.3975ZM34.9294 10.3975V27.4035C34.9294 27.8134 34.9209 28.1448 34.9039 28.3933C34.8658 28.7097 34.8255 28.8542 34.8001 28.9179C34.7407 28.8796 34.6135 28.7692 34.3951 28.457C31.1473 23.8927 28.4719 20.1058 26.4027 17.1515C25.6607 16.0895 24.9951 15.1359 24.4121 14.2906L24.1195 13.8701V31.3497H26.5851V21.5628L28.1729 23.8588L28.4867 24.3111L32.4363 30.0265C33.1719 31.0757 34.0538 31.6088 35.0608 31.6088C35.8622 31.6088 36.4876 31.235 36.9179 30.4938C37.2359 29.9161 37.3971 29.2237 37.3971 28.4357V10.3996H34.9315L34.9294 10.3975Z" fill="#999999"/>
<path fill-rule="evenodd" clip-rule="evenodd" d="M63.4943 18.6637C63.4434 18.4407 63.3925 18.2177 63.3417 17.9947C63.3183 17.9012 63.2971 17.8077 63.2717 17.7164C63.1424 17.2046 62.941 16.7161 62.7353 16.2339C62.4258 15.4948 62.0336 14.7982 61.5566 14.1504C61.5418 14.1355 61.5269 14.1207 61.5121 14.1058H61.5206C61.4867 14.023 61.4294 13.955 61.3658 13.8934C61.3595 13.8849 61.3531 13.8764 61.3467 13.8679C60.8485 13.1798 60.2634 12.5702 59.6189 12.0201C59.1971 11.6612 58.7625 11.3193 58.2812 11.0431C57.9335 10.7862 57.5477 10.5929 57.164 10.4039C56.6658 10.1575 56.1527 9.94084 55.6143 9.78792C55.5846 9.75819 55.5485 9.75394 55.5104 9.76244C55.468 9.74332 55.4277 9.71784 55.3853 9.70509C54.8638 9.5543 54.338 9.43111 53.8017 9.35253C53.7614 9.34616 53.719 9.33978 53.6787 9.33341C53.6745 9.33341 53.6702 9.33341 53.666 9.33341C53.5748 9.32067 53.4837 9.31005 53.3925 9.29943C53.2886 9.28669 53.1869 9.27606 53.083 9.26969C53.0639 9.26757 53.0448 9.26545 53.0236 9.26545C53.0236 9.26545 53.0151 9.26545 53.0109 9.26545C52.8922 9.25483 52.7713 9.24846 52.6505 9.24209C51.8682 9.20386 51.0902 9.24208 50.3079 9.3589C50.2909 9.3589 50.2782 9.36315 50.2613 9.36527C50.2443 9.36739 50.2273 9.37164 50.2125 9.37377C49.055 9.55642 47.9526 9.89837 46.9032 10.423C46.7399 10.5037 46.5788 10.5886 46.4177 10.6736C46.1909 10.7947 45.9683 10.9242 45.752 11.0665C45.6333 11.143 45.5167 11.2237 45.4022 11.3044C44.9337 11.6357 44.4864 11.9989 44.0581 12.3833C43.7168 12.6892 43.4009 13.0184 43.119 13.3837C42.9388 13.6173 42.7374 13.8403 42.5635 14.0782C42.307 14.4244 42.0908 14.8003 41.8809 15.1784C40.7149 17.2853 40.2273 19.5408 40.4329 21.9451C40.5559 23.4021 40.9608 24.7741 41.582 26.0888C41.6053 26.1398 41.6307 26.1908 41.6541 26.2439C41.8618 26.6686 42.2434 26.777 42.5975 26.9639C42.536 26.8492 42.4703 26.7345 42.4045 26.6198C42.2371 26.3246 42.0653 26.0251 41.9254 25.6789C42.3749 26.0315 42.8264 26.2736 43.2949 26.486C43.3776 26.5242 43.4221 26.5731 43.4561 26.6538C43.5345 26.8322 43.6151 27.0085 43.6977 27.1847C43.7253 27.2463 43.755 27.3079 43.7825 27.3695C43.8037 27.4141 43.8165 27.4672 43.8801 27.4842C44.0624 27.5352 44.2447 27.5883 44.444 27.6456C44.4207 27.5585 44.391 27.4757 44.3613 27.3929C44.2956 27.2102 44.2256 27.0339 44.1896 26.8407C44.9252 27.0764 45.6524 27.2739 46.3859 27.4332C46.7166 27.5054 47.0473 27.5692 47.3802 27.6265C47.7787 27.6945 48.1773 27.7561 48.578 27.8092C48.614 27.8155 48.6501 27.8177 48.684 27.8219C48.684 27.8219 48.6847 27.8219 48.6861 27.8219C48.8515 27.8431 49.0105 27.8644 49.1758 27.8835C49.479 27.9196 49.7779 27.9472 50.0832 27.9026C50.9503 27.7773 51.8046 27.5989 52.6463 27.3589C53.0915 27.2315 53.5388 27.0977 54.0073 26.9023C53.7826 26.8938 53.5727 26.9023 53.3671 26.9023C53.2399 26.9023 53.1127 26.898 52.9876 26.8853C53.0363 26.2524 53.083 25.6385 53.1296 25.0205C53.9522 24.9653 54.7535 24.8931 55.5528 24.7932C56.5174 24.6722 57.4735 24.5171 58.4211 24.3047C58.5653 24.2729 58.7095 24.2389 58.8536 24.2028C59.0423 24.1561 59.1992 24.0711 59.3433 23.9479C59.5638 23.7653 59.7864 23.5847 59.9984 23.3936C60.1723 23.2364 60.3567 23.0941 60.5284 22.8881C60.4521 22.9051 60.4055 22.9115 60.3609 22.9221C60.2422 22.9497 60.1214 22.9731 60.0005 22.9985C58.9215 23.2237 57.836 23.3851 56.7379 23.4658C55.6249 23.5465 54.5097 23.5741 53.3946 23.5805C53.2399 23.5805 53.1975 23.5359 53.1911 23.3872C53.1741 22.9773 53.1296 22.5674 53.1084 22.1575C53.0978 21.9324 53.0703 21.703 53.1021 21.4757C55.6757 21.2782 58.2155 20.9575 60.6493 20.04C60.7849 20.7451 60.8061 21.4439 60.8295 22.1575C60.8358 22.3019 60.8379 22.4463 60.8464 22.5908C61.1517 22.2807 61.4209 21.9812 61.6796 21.6732C61.7517 21.584 61.7813 21.5033 61.7707 21.3886C61.7623 21.2782 61.7495 21.1677 61.7368 21.0594C61.6859 20.641 61.6139 20.2269 61.5163 19.8148C61.4888 19.7023 61.51 19.6428 61.6202 19.5812C62.129 19.2987 62.6145 18.9801 62.9579 18.4534C62.9961 18.566 63.0215 18.6743 63.0427 18.7869C63.0851 19.0077 63.1063 19.2308 63.1678 19.4665C63.2844 19.2138 63.3862 18.9993 63.4837 18.7826C63.4985 18.7486 63.4985 18.6998 63.4901 18.6637H63.4943ZM60.3334 13.3709C60.7319 13.8063 61.0839 14.2778 61.4188 14.7642C61.5015 14.8853 61.4888 14.9554 61.3849 15.0531C61.1496 15.2697 60.8591 15.395 60.592 15.5628C60.5645 15.5585 60.5369 15.5564 60.5178 15.5883C60.3397 15.6541 60.1595 15.7221 59.956 15.7985C59.4875 15.0233 58.9872 14.2587 58.3766 13.5536C58.8133 13.286 59.2501 13.0332 59.4642 12.5256C59.7843 12.7869 60.0578 13.0778 60.3291 13.3709H60.3334ZM55.6227 11.4594C55.6355 11.4531 55.6482 11.4467 55.6588 11.4424C55.6927 11.4254 55.7245 11.4042 55.7563 11.3872C55.8072 11.366 55.8432 11.3745 55.8793 11.3957C55.9174 11.417 55.9492 11.4552 55.981 11.4828C56.1951 11.6633 56.405 11.846 56.6107 12.0371C56.9732 12.3727 57.3145 12.7316 57.6431 13.1352C57.3463 13.1968 57.0707 13.2584 56.793 13.3115C55.8708 13.4877 54.938 13.5642 53.9988 13.6003C53.9395 13.6003 53.8822 13.6003 53.8229 13.6003C53.8101 13.6003 53.7995 13.6003 53.7868 13.6003C53.4137 13.6003 53.0385 13.6003 52.6653 13.6003C52.5954 13.5982 52.5254 13.5939 52.4555 13.5918C52.3897 13.2477 52.3919 12.8973 52.3495 12.549C52.3325 12.4152 52.324 12.2814 52.3092 12.1285C52.5657 12.1008 52.818 12.0754 53.0703 12.0456C53.9395 11.9458 54.8002 11.7929 55.6164 11.4573L55.6227 11.4594ZM52.5699 14.7982C54.4546 14.6431 56.3181 14.4286 58.0841 13.6938C58.5907 14.4074 59.0444 15.1444 59.426 15.9536C59.2649 15.9939 59.1229 16.0364 58.9787 16.0683C57.8996 16.3062 56.8099 16.457 55.7097 16.5334C54.7769 16.5971 53.8441 16.6141 52.9091 16.6056C52.7586 16.6056 52.712 16.561 52.7014 16.4081C52.6675 15.9196 52.6145 15.4311 52.5721 14.9426C52.5678 14.898 52.5721 14.8513 52.5721 14.7961L52.5699 14.7982ZM56.5661 10.6439C57.4459 11.041 58.2685 11.5338 59.0211 12.1391C59.0465 12.1603 59.0805 12.1731 59.1101 12.19C59.1462 12.2665 59.3031 12.3026 59.1843 12.4258C59.0762 12.5086 58.966 12.5915 58.8557 12.6743H58.8473L58.843 12.6807C58.7349 12.7359 58.6289 12.7911 58.5229 12.8463V12.8421H58.5187C58.5081 12.8421 58.4996 12.8463 58.4932 12.8548C58.4699 12.8633 58.4466 12.8739 58.4254 12.8824C58.2855 12.9334 58.1455 12.9823 58.0056 13.0332C57.9696 13.0332 57.9335 13.0332 57.8975 13.0332C57.7449 12.8166 57.5371 12.6509 57.3505 12.4704C56.9393 12.0711 56.4962 11.7058 56.0277 11.3596C56.0065 11.3447 55.9853 11.3278 55.9619 11.3129C56.0446 11.247 56.1146 11.1918 56.1845 11.1345C56.2248 11.126 56.2481 11.1005 56.2587 11.0601C56.2842 11.0601 56.3139 11.0644 56.3202 11.0304C56.3711 10.9858 56.4156 10.9391 56.4517 10.886C56.5025 10.8116 56.5428 10.7288 56.5683 10.6396L56.5661 10.6439ZM49.1101 10.081C49.2712 10.0364 49.4345 9.99394 49.5977 9.95784C49.6422 9.94722 49.6867 9.9366 49.7313 9.9281C49.797 9.91323 49.8648 9.89837 49.9284 9.88563C49.9666 9.87925 50.0026 9.87288 50.0387 9.86651C50.0768 9.85801 50.1171 9.85164 50.1553 9.84527C50.1765 9.84102 50.1977 9.8389 50.2189 9.83465C50.3948 9.80491 50.5687 9.78155 50.7446 9.76244C50.8061 9.75394 50.8676 9.74757 50.9269 9.74332C51.0647 9.72846 51.2004 9.71784 51.3382 9.70934C51.5757 9.6966 51.8131 9.69448 52.0505 9.69872C52.2095 9.70085 52.3664 9.70721 52.5254 9.71359C52.5805 9.71571 52.6378 9.71784 52.695 9.71996C52.7819 9.72421 52.871 9.72845 52.9579 9.73483C52.977 9.73483 52.9961 9.73695 53.013 9.7412C53.0915 9.74544 53.1699 9.75394 53.2483 9.76031C53.2717 9.76243 53.2971 9.76456 53.3183 9.76881C53.331 9.76881 53.3437 9.77093 53.3565 9.77518C53.4603 9.7858 53.5663 9.79854 53.6702 9.81553C53.7147 9.82191 53.7571 9.82828 53.8038 9.83465C53.8165 9.83465 53.8271 9.8389 53.8419 9.8389C53.8653 9.84315 53.8865 9.8474 53.9098 9.85164C53.9161 9.85164 53.9246 9.85164 53.931 9.85376C53.9543 9.85801 53.9797 9.86226 54.0031 9.86651C54.037 9.87288 54.073 9.87925 54.1069 9.88563C54.1197 9.88775 54.1324 9.89199 54.1451 9.89412C54.1684 9.89837 54.1917 9.90261 54.2151 9.90686C54.2193 9.90686 54.2214 9.90686 54.2257 9.90899C54.249 9.91111 54.2723 9.91748 54.2956 9.92173C54.3253 9.92598 54.355 9.93447 54.3868 9.94084C54.4483 9.95359 54.5119 9.96845 54.5755 9.9812C54.5776 9.9812 54.5797 9.9812 54.5818 9.9812C54.5818 9.9812 54.5882 9.98332 54.5924 9.98332C54.5924 9.98332 54.6115 9.9897 54.6221 9.9897C54.6666 10.0003 54.709 10.0109 54.7535 10.0216C54.7535 10.0216 54.7726 10.0258 54.7832 10.03C54.8065 10.0343 54.8277 10.0407 54.8532 10.0449C54.8617 10.047 54.8701 10.0492 54.8786 10.0513C54.8998 10.0555 54.9231 10.064 54.9443 10.0725C55.0101 10.0959 55.0737 10.1214 55.1457 10.1129C55.2093 10.1575 55.2793 10.1745 55.3556 10.1787C55.6545 10.2892 55.9513 10.3975 56.2651 10.5143C56.2015 10.5823 56.1315 10.6375 56.0552 10.6821C55.8538 10.8031 55.6249 10.8541 55.4129 10.9433C55.3387 10.9603 55.2645 10.9752 55.1903 10.9922C55.1648 10.9964 55.1415 11.0028 55.1161 11.007C55.044 11.0219 54.9698 11.0368 54.8956 11.0516C54.8405 11.0516 54.7875 11.0538 54.7323 11.0601C54.7175 11.0601 54.7048 11.0623 54.6899 11.0644C54.6709 11.0665 54.6497 11.0708 54.6306 11.0729C54.6306 11.0729 54.6179 11.0729 54.6115 11.075C54.5649 11.0835 54.5182 11.0899 54.4716 11.0984C54.4716 11.0984 54.4709 11.0984 54.4695 11.0984C54.4165 11.109 54.3613 11.1175 54.3083 11.126C54.2723 11.1302 54.2384 11.1345 54.2045 11.1387C54.1642 11.1217 54.1281 11.1345 54.0942 11.1536C54.0879 11.1536 54.0815 11.1536 54.0773 11.1536C53.9416 11.1663 53.808 11.1727 53.6723 11.177C53.1911 11.1982 52.7099 11.1918 52.2307 11.1854C52.1905 10.8435 52.1523 10.5016 52.1163 10.1745C52.0866 10.4442 52.112 10.7309 52.1014 11.0155C52.1014 11.075 52.1353 11.1493 52.0569 11.1876C51.4993 11.1939 50.9397 11.2237 50.38 11.1833C50.1871 11.1706 49.992 11.1515 49.7991 11.1281C49.7525 11.1239 49.7058 11.1175 49.6592 11.1111C49.4832 11.0899 49.3073 11.0644 49.1334 11.0368C49.0847 11.0283 49.0295 11.0283 48.9914 10.9816C49.1165 10.9008 49.2415 10.8223 49.3666 10.7416C49.5002 10.6566 49.6316 10.5738 49.7652 10.4867C49.7694 10.4846 49.7737 10.4824 49.7779 10.4782C49.8182 10.4527 49.8585 10.4272 49.8987 10.4017C49.8606 10.4166 49.8224 10.4315 49.7843 10.4485C49.7843 10.4485 49.7821 10.4485 49.78 10.4485C49.6083 10.5228 49.4451 10.6141 49.2839 10.7097C49.1589 10.784 49.0359 10.8626 48.9129 10.9391C48.7985 10.9879 48.6988 10.9221 48.5949 10.8924C48.3215 10.8138 48.0522 10.7182 47.8169 10.5079C48.243 10.3147 48.6713 10.1808 49.1037 10.0619L49.1101 10.081ZM51.1665 20.023C50.7934 20.023 50.416 20.023 50.0408 20.023C49.8648 20.0208 49.6889 20.0166 49.515 20.0102C49.1122 19.9996 48.7115 19.9805 48.313 19.955C47.6028 19.9125 46.8947 19.8488 46.1866 19.766C46.1209 19.732 46.0488 19.7447 45.9789 19.7362C45.9153 19.7277 45.8495 19.7214 45.7859 19.7129C45.7457 19.7065 45.7054 19.7001 45.6672 19.6938C45.1817 19.6003 44.6941 19.5069 44.2087 19.4155C44.1472 19.4028 44.0857 19.3837 44.0157 19.3667C44.2023 18.4725 44.4355 17.6017 44.7683 16.7373C45.8177 17.1069 46.8841 17.3702 47.9632 17.5635C48.3808 17.6357 48.7985 17.6994 49.2203 17.7525C50.0832 17.863 50.9524 17.9352 51.8279 17.9862C51.7877 18.6658 51.7474 19.3285 51.705 20.0187H51.1644L51.1665 20.023ZM51.6202 21.4863C51.5841 22.183 51.5481 22.8732 51.5099 23.5869C50.8273 23.5975 50.1468 23.5996 49.4663 23.5847C49.0677 23.5784 48.6691 23.5656 48.2706 23.5444C46.7378 23.4658 45.2135 23.2853 43.6999 22.9136C43.7232 21.9982 43.7338 21.0764 43.8801 20.1462C44.268 20.2375 44.6327 20.4116 45.027 20.4754C45.0567 20.4987 45.0927 20.5136 45.1309 20.5115C45.6375 20.6729 46.1569 20.7833 46.6742 20.8853C47.236 20.9978 47.8021 21.0977 48.3702 21.1741C48.7094 21.223 49.0486 21.2654 49.3878 21.2994C49.4472 21.3058 49.5065 21.3122 49.5659 21.3185C50.2019 21.3844 50.84 21.4523 51.4824 21.4693C51.5227 21.4693 51.5608 21.48 51.6181 21.4885L51.6202 21.4863ZM48.9596 16.5801C48.5398 16.5589 48.1201 16.5292 47.7003 16.4867C46.8163 16.3996 45.9322 16.2637 45.0524 16.0619C45.4213 15.257 45.8262 14.4924 46.335 13.7617C46.4877 13.817 46.6424 13.87 46.7951 13.9189C47.2721 14.0782 47.7575 14.2099 48.2473 14.3182C48.5335 14.384 48.8218 14.4414 49.1143 14.4881C50.0599 14.6453 51.0096 14.7345 51.9912 14.7982C51.9615 15.4014 51.9318 15.9897 51.9021 16.5993C50.9185 16.629 49.9369 16.629 48.9596 16.578V16.5801ZM47.8805 13.4198C47.501 13.3667 47.1215 13.2966 46.7442 13.2095C46.9562 12.9525 47.1491 12.7168 47.3463 12.4789C47.3653 12.4555 47.3865 12.4343 47.4077 12.4131C47.4099 12.4088 47.4141 12.4046 47.4183 12.4003C47.4544 12.3876 47.4713 12.3578 47.4862 12.326C47.5031 12.3069 47.5201 12.2899 47.5371 12.2708C47.5561 12.2538 47.5752 12.2368 47.5922 12.2198C47.6155 12.1964 47.6367 12.1752 47.6579 12.1518C47.6812 12.1263 47.7045 12.1008 47.7279 12.0754L47.7321 12.0669C47.7554 12.0584 47.7745 12.0456 47.7745 12.0159L47.7809 12.0244C48.0077 11.8205 48.2345 11.6166 48.4614 11.4127C48.9702 11.5975 49.4875 11.7631 50.0196 11.8651C50.6619 11.9904 51.3107 12.069 51.9636 12.1115C52.0039 12.1136 52.0442 12.12 52.076 12.1242V13.5854C50.6619 13.6279 49.2691 13.6194 47.8826 13.4177L47.8805 13.4198ZM48.2176 11.247L48.2133 11.2513H48.2091L48.2176 11.247ZM47.7512 10.8966H47.7597H47.7533H47.7512ZM45.6524 11.7079C45.6524 11.7079 45.663 11.6994 45.6693 11.6952C45.9916 11.47 46.3223 11.264 46.6679 11.075C46.9201 10.9348 47.1788 10.8053 47.4417 10.6863C47.4968 10.6608 47.5519 10.6162 47.6219 10.6417C47.6155 10.7012 47.6346 10.75 47.6791 10.7925V10.7968C47.6897 10.8393 47.713 10.8754 47.7512 10.8987C47.7639 10.9115 47.7745 10.9242 47.7851 10.937C47.7957 10.9497 47.8084 10.9603 47.819 10.9731C47.836 10.9922 47.8551 11.0092 47.872 11.0262C47.8826 11.0559 47.9081 11.0686 47.9356 11.075C47.9547 11.0877 47.9759 11.1026 47.9971 11.1175C48.0098 11.126 48.0204 11.1366 48.0331 11.1472C48.0543 11.16 48.0777 11.1727 48.0989 11.1876C48.1243 11.2237 48.1646 11.2407 48.2049 11.2534C48.2324 11.2916 48.2748 11.3086 48.3172 11.3235C48.3257 11.3341 48.3363 11.3447 48.3427 11.3554C48.1413 11.5444 47.9038 11.6909 47.713 11.8927C47.5731 11.9989 47.4395 12.1136 47.3081 12.2325C47.0367 12.4768 46.7866 12.7444 46.5385 13.012C46.4919 13.0608 46.4516 13.0885 46.4071 13.097C46.3668 13.1054 46.3244 13.0991 46.2714 13.0821C45.8898 12.9525 45.5103 12.8251 45.1711 12.6042C45.0588 12.532 44.9528 12.447 44.8722 12.3132C45.1139 12.0945 45.3789 11.897 45.6481 11.7101L45.6524 11.7079ZM44.6708 12.4789C44.9231 13.08 45.4764 13.3263 46.0001 13.6194C45.7669 13.938 45.5294 14.2481 45.3026 14.5646C45.0291 14.949 44.7768 15.3525 44.5436 15.7624C44.5224 15.8007 44.4821 15.8368 44.5012 15.8899C43.8016 15.6966 43.1253 15.4587 42.5932 14.9108C43.172 13.9932 43.8631 13.1904 44.6729 12.4768L44.6708 12.4789ZM41.0138 19.0077C41.0477 18.8081 41.0774 18.6085 41.1474 18.4024C41.5841 19.0184 42.2137 19.3667 42.8476 19.7001C42.9155 19.7362 42.9769 19.7554 42.9536 19.8637C42.7522 20.76 42.6165 21.6647 42.6144 22.6077C42.3388 22.5249 42.0887 22.4102 41.8364 22.2998C41.5629 22.1808 41.3064 22.0343 41.0605 21.8644C40.946 21.7837 40.876 21.6924 40.8697 21.5394C40.8294 20.6899 40.8675 19.8467 41.0138 19.0077ZM41.7601 25.2817C41.6541 25.2095 41.6519 25.0927 41.6159 24.9971C41.264 24.069 41.0202 23.1154 40.9163 22.0895C41.0986 22.2764 41.264 22.44 41.4548 22.578C41.794 22.8265 42.1607 23.0325 42.5402 23.2109C42.642 23.2598 42.678 23.3235 42.6907 23.4361C42.784 24.2814 42.9197 25.1182 43.2123 25.9699C42.6823 25.7702 42.1968 25.5854 41.7601 25.2817ZM43.2886 18.6191C43.2377 18.7847 43.2017 18.9568 43.1147 19.1224C42.4915 18.8973 41.8703 18.6807 41.3573 18.2431C41.2428 18.1454 41.2131 18.052 41.2597 17.897C41.5396 16.9285 41.9318 16.0109 42.4554 15.1338C42.8222 15.7667 43.4009 16.1193 44.0327 16.406C44.0497 16.4166 44.0687 16.4272 44.0857 16.44C44.1769 16.4888 44.1302 16.5483 44.1005 16.612C43.7995 17.2704 43.5112 17.9309 43.2886 18.6212V18.6191ZM47.6452 26.7791C47.2275 26.7451 46.8099 26.7047 46.3944 26.6453C45.6312 26.537 44.8743 26.4074 44.1239 26.2332C44.0433 26.2141 43.9924 26.1908 43.9776 26.0931C43.9161 25.7299 43.8122 25.3709 43.7804 25.0056C43.7423 24.5808 43.6893 24.1518 43.7041 23.6909C45.1542 24.1688 46.6255 24.4874 48.1158 24.6998C48.5101 24.7571 48.9045 24.806 49.3009 24.8485C50.0577 24.9292 50.8188 24.9886 51.5841 25.029C51.6202 25.6513 51.6541 26.2651 51.6923 26.9065H50.8082C50.3058 26.9065 49.8033 26.9341 49.303 26.8959C49.1567 26.8853 49.0083 26.8746 48.8621 26.864C48.4571 26.8364 48.0522 26.8109 47.6473 26.777L47.6452 26.7791ZM60.3927 19.2881C59.8373 19.4092 59.2903 19.56 58.7243 19.63C58.4105 19.6683 58.101 19.7256 57.7894 19.7745C57.7067 19.7787 57.6219 19.7596 57.5435 19.8063C57.4671 19.8063 57.3929 19.8 57.3187 19.8276C57.217 19.8361 57.1152 19.8467 57.0113 19.8552C56.9901 19.8552 56.9668 19.8552 56.9456 19.8573C56.9159 19.8424 56.8926 19.8509 56.8693 19.87C56.8354 19.8743 56.8036 19.8764 56.7697 19.8785C56.6764 19.8849 56.5767 19.8637 56.4877 19.9062C56.3838 19.9104 56.2799 19.9125 56.1739 19.9168C56.0807 19.9231 55.9831 19.904 55.892 19.9465C55.7987 19.9465 55.7054 19.9486 55.6143 19.9508C55.4849 19.9614 55.3556 19.972 55.2263 19.9826C54.5331 19.989 53.8377 19.9975 53.1445 20.006H52.9897C52.9367 19.3306 52.8879 18.6658 52.8349 17.9862C55.186 17.8056 57.5032 17.5231 59.7313 16.6502C59.8246 16.9178 59.9157 17.1748 60.0048 17.4297C60.2019 17.9777 60.3631 18.5362 60.4924 19.1033C60.5178 19.2159 60.5009 19.2605 60.3864 19.286L60.3927 19.2881ZM62.7883 18.2198C62.4173 18.5447 61.9764 18.7401 61.5291 18.9292C61.4676 18.9546 61.4019 18.978 61.3149 19.0099C61.0542 18.103 60.6959 17.2513 60.2867 16.4017C60.8083 16.0768 61.3595 15.7816 61.6711 15.1932C61.881 15.5139 62.0421 15.8453 62.199 16.1745C62.4703 16.75 62.6823 17.349 62.8604 17.9607C62.8922 18.0711 62.8753 18.1454 62.7883 18.2219V18.2198Z" fill="#273A8C"/>
<path fill-rule="evenodd" clip-rule="evenodd" d="M65.2242 15.0425C65.0059 13.7193 64.4229 12.5766 63.5197 11.5954C62.5636 10.5611 61.3828 9.87079 60.0769 9.38441C59.7525 9.26335 59.426 9.13592 59.0762 9.09132C58.9935 9.04034 58.8981 9.01911 58.8006 9.00849L58.7964 9.0191C58.7794 8.98937 58.7497 8.98937 58.7222 8.983C57.9844 8.80672 57.2361 8.70052 56.4813 8.64742C55.9916 8.61344 55.5019 8.5922 55.0122 8.61769H55.0058L54.8532 8.62618C56.1231 8.6453 57.376 8.78335 58.5992 9.12954C58.631 9.14229 58.6649 9.15716 58.6967 9.16778C59.8394 9.5161 60.9037 10.0195 61.8301 10.7883C63.2441 11.9607 64.0582 13.4559 64.2024 15.2931C64.2745 16.2297 64.1558 17.1324 63.8929 18.0117C63.7975 18.3281 63.6851 18.6425 63.5558 18.9504C63.3544 19.4347 63.1191 19.8956 62.8562 20.3373C62.6802 20.6347 62.4916 20.9214 62.2902 21.2018C62.0167 21.5841 61.722 21.9536 61.4103 22.3083C60.7553 23.0559 60.0281 23.7271 59.2501 24.343C59.0529 24.498 58.8558 24.6467 58.6522 24.7911C57.3357 25.7448 55.9047 26.5009 54.3889 27.0913C54.3189 27.1189 54.2469 27.1465 54.1769 27.172C52.5784 27.7773 50.9269 28.1788 49.214 28.3147C49.0317 28.3295 48.8472 28.3423 48.667 28.3487C48.5759 28.3529 48.4847 28.3572 48.3914 28.3593C47.9653 28.3742 47.5434 28.372 47.1215 28.3508C46.4537 28.3189 45.7902 28.2425 45.1309 28.1108C44.6624 28.0173 44.196 27.8984 43.7317 27.7476C43.1529 27.5586 42.6102 27.2973 42.0632 27.0361C41.8279 26.9214 41.6138 26.7536 41.3954 26.5986C41.317 26.5434 41.2386 26.486 41.1622 26.4287C40.4393 25.8849 39.8288 25.2329 39.373 24.4449C38.508 22.9433 38.3236 21.3356 38.6797 19.6534C38.879 18.7019 39.25 17.8163 39.7015 16.9625C39.7482 16.9179 39.7715 16.8584 39.7885 16.7968H39.7863C39.8266 16.7713 39.8457 16.731 39.8563 16.6864C40.24 16.0747 40.6598 15.4906 41.1113 14.9278C41.158 14.9129 41.1728 14.8726 41.1962 14.8365C41.2661 14.7642 41.3424 14.7005 41.387 14.6071L41.3742 14.5965C41.2979 14.6623 41.2131 14.7154 41.1728 14.8152C41.1431 14.8428 41.1135 14.8726 41.0859 14.9002C40.7403 15.2421 40.4542 15.6329 40.1637 16.0195C40.0217 16.2064 39.8648 16.3848 39.7673 16.6014C39.7376 16.6142 39.727 16.6354 39.7228 16.6651H39.7249C39.6761 16.6842 39.6655 16.7267 39.6507 16.7671V16.7713C39.6422 16.7841 39.6337 16.7989 39.6231 16.8117H39.6252C39.6146 16.8265 39.604 16.8393 39.5934 16.852C39.5701 16.8626 39.5616 16.8818 39.5616 16.9051C39.5489 16.9221 39.5362 16.9412 39.5235 16.9582C39.4938 16.971 39.4895 16.9943 39.4895 17.0198C39.4556 17.0495 39.4281 17.0857 39.4196 17.1324C39.4069 17.1557 39.392 17.177 39.3793 17.2003C39.3708 17.2131 39.3602 17.2258 39.3518 17.2386C39.3348 17.2704 39.3178 17.3044 39.303 17.3363H39.3051C39.2945 17.349 39.2818 17.3639 39.2712 17.3766C38.7073 18.3515 38.296 19.3837 38.0798 20.4924C37.8932 21.4439 37.8699 22.3933 38.0543 23.349C38.296 24.5894 38.8366 25.6811 39.6888 26.6134C40.6725 27.6881 41.8851 28.4081 43.2462 28.8966C43.4667 28.9773 43.6978 29.0219 43.8716 29.2195C44.1302 29.5168 44.4355 29.7674 44.7514 30.0011C44.8489 30.1157 44.9782 30.188 45.097 30.275C45.1712 30.3472 45.2496 30.411 45.3429 30.4556C45.5358 30.6021 45.7372 30.7317 45.945 30.8549C45.9534 30.8612 45.964 30.8676 45.9725 30.8718C46.0743 30.9398 46.1718 31.0142 46.2948 31.0375C46.3477 31.0991 46.4071 31.1501 46.494 31.148C46.5322 31.2223 46.6127 31.2393 46.6763 31.2733C46.7802 31.3264 46.8841 31.3795 46.9901 31.4283C47.8445 31.8403 48.7391 32.1441 49.6698 32.3395C50.6196 32.5391 51.582 32.6177 52.553 32.5731C53.1932 32.5434 53.8314 32.4754 54.4589 32.331C54.5882 32.2991 54.7196 32.2673 54.8511 32.2354C54.885 32.2311 54.921 32.229 54.955 32.2227C56.1188 31.9189 57.2191 31.458 58.2346 30.8124C60.1595 29.5933 61.6202 27.9557 62.5997 25.8934C63.2611 24.5044 63.6173 23.0368 63.6978 21.5012C63.7021 21.4248 63.7127 21.3526 63.7551 21.2846C64.1006 20.7345 64.4017 20.161 64.6455 19.5579C65.0059 18.6573 65.256 17.7356 65.3133 16.7586C65.3472 16.1766 65.326 15.6074 65.2306 15.034L65.2242 15.0425Z" fill="#273A8C"/>
<path fill-rule="evenodd" clip-rule="evenodd" d="M54.9167 10.6779C54.9993 10.7692 55.0966 10.8329 55.194 10.9009C55.2321 10.9264 55.2808 10.9561 55.2046 10.9965C55.2786 10.9795 55.3527 10.9646 55.4268 10.9476C55.2575 10.8563 55.0861 10.7671 54.9167 10.6758V10.6779Z" fill="#273A8C"/>
<path fill-rule="evenodd" clip-rule="evenodd" d="M54.6408 10.5207C54.5837 10.4931 54.5265 10.4633 54.4461 10.423C54.5011 10.5037 54.5667 10.5122 54.6408 10.5207Z" fill="#273A8C"/>
<path fill-rule="evenodd" clip-rule="evenodd" d="M53.066 9.85168C53.0893 9.86018 53.1125 9.86655 53.1316 9.87292C53.1147 9.85593 53.0914 9.85381 53.066 9.85168Z" fill="#273A8C"/>
<path fill-rule="evenodd" clip-rule="evenodd" d="M53.0668 9.85169C53.0347 9.84107 53.0005 9.83044 52.9749 9.81982C52.9941 9.84956 53.0304 9.84744 53.0668 9.85169Z" fill="#273A8C"/>
<path fill-rule="evenodd" clip-rule="evenodd" d="M50.1086 10.3104C50.1932 10.2658 50.2483 10.2361 50.3033 10.2085C50.244 10.234 50.17 10.2234 50.1086 10.3104Z" fill="#273A8C"/>
<path fill-rule="evenodd" clip-rule="evenodd" d="M54.006 10.2219C54.006 10.2219 53.9928 10.213 53.9839 10.2064C53.9839 10.2086 53.984 10.2152 53.9884 10.2152C53.995 10.2175 54.0016 10.2197 54.006 10.2219Z" fill="#273A8C"/>
<path fill-rule="evenodd" clip-rule="evenodd" d="M54.0051 10.2213C54.0148 10.2251 54.0206 10.2271 54.0051 10.2213V10.2213Z" fill="#273A8C"/>
<path fill-rule="evenodd" clip-rule="evenodd" d="M50.0448 10.3359C49.9898 10.3189 49.9559 10.338 49.9326 10.3869C49.9876 10.406 50.0109 10.3635 50.0448 10.3359Z" fill="#273A8C"/>
<path fill-rule="evenodd" clip-rule="evenodd" d="M54.2329 10.3363C54.2329 10.3363 54.2197 10.3296 54.2131 10.3274H54.2087C54.2087 10.3274 54.2241 10.3341 54.2329 10.3363Z" fill="#273A8C"/>
<path fill-rule="evenodd" clip-rule="evenodd" d="M54.3399 10.3572C54.304 10.3487 54.268 10.3423 54.2341 10.3338C54.268 10.3487 54.3019 10.3614 54.3357 10.3763C54.3357 10.3699 54.3399 10.3635 54.3399 10.3572Z" fill="#273A8C"/>
<path fill-rule="evenodd" clip-rule="evenodd" d="M50.3842 10.1724C50.4033 10.1618 50.4223 10.149 50.4414 10.1384C50.4096 10.1278 50.3906 10.1384 50.3842 10.1724Z" fill="#273A8C"/>
<path fill-rule="evenodd" clip-rule="evenodd" d="M52.8529 9.78403C52.8529 9.78403 52.8377 9.77534 52.829 9.771C52.8225 9.77534 52.816 9.77968 52.8095 9.78403C52.8204 9.7862 52.829 9.79054 52.8399 9.79054C52.8442 9.79054 52.8486 9.7862 52.8529 9.78185V9.78403Z" fill="#273A8C"/>
<path fill-rule="evenodd" clip-rule="evenodd" d="M50.5242 10.0938L50.522 10.1005H50.5352L50.5242 10.0938Z" fill="#273A8C"/>
<path fill-rule="evenodd" clip-rule="evenodd" d="M53.4864 9.99409C53.4864 9.99409 53.469 9.98975 53.4582 9.98975C53.4582 9.98975 53.4756 9.99409 53.4864 9.99626V9.99409Z" fill="#273A8C"/>
<path fill-rule="evenodd" clip-rule="evenodd" d="M53.2721 9.924C53.2721 9.924 53.2699 9.91965 53.2678 9.91748C53.2634 9.91748 53.2569 9.91748 53.2526 9.91748C53.2526 9.91965 53.2547 9.92616 53.2569 9.92616C53.2612 9.92616 53.2678 9.92617 53.2721 9.924Z" fill="#273A8C"/>
<path fill-rule="evenodd" clip-rule="evenodd" d="M54.4173 10.4128C54.4173 10.4128 54.4107 10.404 54.4063 10.4017C54.4019 10.4017 54.3975 10.4062 54.3953 10.4106C54.3997 10.4151 54.4063 10.4173 54.4107 10.4217C54.4107 10.4195 54.4151 10.4151 54.4173 10.4128Z" fill="#273A8C"/>
<path fill-rule="evenodd" clip-rule="evenodd" d="M54.2131 10.3274C54.2131 10.3274 54.2109 10.3274 54.2087 10.3274V10.3318H54.2131V10.3274Z" fill="#273A8C"/>
<path fill-rule="evenodd" clip-rule="evenodd" d="M54.1875 10.3107C54.1875 10.3107 54.2029 10.3196 54.2117 10.324C54.2117 10.3107 54.2117 10.2952 54.1875 10.3107Z" fill="#273A8C"/>
<path fill-rule="evenodd" clip-rule="evenodd" d="M54.1263 10.2811C54.1263 10.2811 54.135 10.2767 54.1371 10.2746C54.135 10.2724 54.1306 10.2659 54.1263 10.2659C54.1219 10.2659 54.1176 10.2702 54.1154 10.2724C54.1198 10.2746 54.1219 10.2811 54.1263 10.2811Z" fill="#273A8C"/>
<path d="M21.7112 10.8457C21.6391 10.9264 21.5734 11.0134 21.5098 11.1069C21.0794 11.7207 20.8632 12.4789 20.8632 13.3582V13.4304C20.2378 13.2265 19.5191 13.1225 18.7093 13.1225C18.3044 13.1225 17.9249 13.148 17.573 13.1989C17.5708 13.1989 17.5687 13.1989 17.5645 13.1989C17.5602 13.1989 17.5581 13.1989 17.556 13.1989C16.6614 13.3264 15.9533 13.6195 15.4445 14.0697C14.9781 14.4881 14.5838 15.1402 14.27 16.0258C14.1046 16.4888 13.9605 17.0156 13.8396 17.6039H13.704H13.6319H13.5259C13.2121 15.9324 12.6143 14.7366 11.7557 14.0464C11.7196 14.0188 11.6836 13.9911 11.6476 13.9635C11.3423 13.7384 10.9861 13.5579 10.5791 13.4219C9.97063 13.2202 9.25407 13.1182 8.42939 13.1182C7.93331 13.1182 7.47327 13.1586 7.04715 13.2414C5.75183 13.4878 4.78511 14.1101 4.16607 15.0998C3.82051 15.6584 3.56187 16.372 3.39651 17.2386C3.39651 17.2407 3.39651 17.2449 3.39439 17.2471C3.24175 18.0435 3.16331 18.9674 3.16331 20.0124V31.3412H0.697754V19.9933C0.697754 17.0368 1.21715 14.7727 2.24111 13.2648C3.46647 11.3957 5.55255 10.4485 8.43787 10.4485C9.70987 10.4485 10.8292 10.612 11.7854 10.937C12.1797 11.0708 12.5464 11.2322 12.8856 11.4212C13.1676 11.5784 13.4305 11.7526 13.67 11.948C14.889 10.9518 16.5914 10.4485 18.7326 10.4485C19.8435 10.4485 20.8399 10.578 21.7133 10.8414L21.7112 10.8457Z" fill="#273A8C"/>
<path d="M18.7305 13.6046C16.5257 13.6046 15.0289 14.9151 14.2869 17.4998C13.9986 18.4662 13.8502 19.3009 13.8502 19.9827V31.3455H16.3158V20.0039C16.3158 19.0439 16.4917 18.2028 16.8415 17.5041C17.291 16.6779 17.91 16.2744 18.7305 16.2744C19.7459 16.2744 20.4519 16.6991 20.8611 17.5614V13.9827C20.2463 13.732 19.5361 13.6046 18.7305 13.6046Z" fill="#273A8C"/>
<path d="M13.4559 19.9826V31.3455H10.9903V20.0039C10.9903 19.0184 10.861 18.2326 10.5981 17.64C10.3713 17.1196 10.0406 16.7501 9.60387 16.5271C9.27315 16.3572 8.88307 16.2743 8.43151 16.2743C7.61107 16.2743 6.99203 16.6779 6.54047 17.5041C6.19067 18.2028 6.01683 19.0439 6.01683 20.0039V31.3455H3.55127V19.9826C3.55127 19.0396 3.66787 18.1752 3.90107 17.3915C4.07915 16.7904 4.32507 16.2403 4.63671 15.7412C5.26847 14.7027 6.12283 14.0379 7.18495 13.7575C7.18707 13.7575 7.18919 13.7575 7.19343 13.7575C7.57927 13.6534 7.99267 13.6025 8.43363 13.6025C9.19259 13.6025 9.84979 13.6917 10.401 13.8701C10.8186 14.0018 11.1769 14.1865 11.4695 14.4202C11.514 14.4584 11.5585 14.4945 11.6009 14.5327C12.1818 15.0743 12.6545 16.0365 13.0489 17.4743C13.1082 17.7037 13.1633 17.9225 13.2079 18.1327C13.2863 18.4747 13.3435 18.7933 13.3859 19.0864C13.4305 19.4177 13.4559 19.7172 13.4559 19.9805V19.9826Z" fill="#273A8C"/>
<path d="M45.9301 10.406C45.9301 10.406 45.8304 10.2849 45.646 10.0598C45.4616 9.83468 45.2008 9.49061 44.8319 9.09557C44.6475 8.89805 44.463 8.66654 44.2277 8.43928C43.9988 8.2099 43.7507 7.96141 43.4857 7.69804C43.2059 7.44955 42.9112 7.18619 42.5974 6.90796C42.2646 6.65309 41.936 6.36212 41.5692 6.09238C41.3827 5.9607 41.194 5.82477 41.0011 5.68672C40.9036 5.61875 40.8082 5.54654 40.7085 5.4807C40.6068 5.41698 40.5029 5.35326 40.399 5.28742C40.1912 5.15574 39.9814 5.02194 39.7672 4.88601C39.5468 4.76283 39.3221 4.63751 39.0952 4.51008C38.9807 4.44636 38.8684 4.38265 38.7518 4.31893C38.6373 4.25521 38.5143 4.20424 38.3956 4.14477C38.156 4.03008 37.9122 3.91327 37.6663 3.79645C37.414 3.69238 37.1618 3.58831 36.9053 3.48211C36.778 3.42902 36.6487 3.37592 36.5194 3.3207C36.388 3.27398 36.2544 3.22937 36.1209 3.18264C35.0651 2.78335 33.9245 2.52636 32.7649 2.3161C32.4745 2.2715 32.1798 2.22689 31.8872 2.18229C31.5925 2.15468 31.2957 2.12707 30.9968 2.09946C30.7 2.06336 30.4011 2.05698 30.1022 2.05061L29.6527 2.03787L29.428 2.0315H29.4004C29.375 2.0315 29.4195 2.0315 29.4089 2.0315H29.3941L29.3369 2.03362L29.2203 2.03787L28.2896 2.06548C28.1306 2.06548 27.9843 2.08035 27.8401 2.09734L27.4034 2.13982C26.8225 2.17805 26.231 2.29698 25.6502 2.38194C24.4969 2.62831 23.3669 2.91079 22.3133 3.31858C21.2681 3.73486 20.2632 4.17663 19.3686 4.70972C18.4612 5.21946 17.6578 5.79291 16.9243 6.33663C16.5723 6.62973 16.2352 6.91008 15.9151 7.17557C15.6077 7.46017 15.3152 7.7299 15.0417 7.98265C14.783 8.25238 14.5435 8.50725 14.3124 8.73875C14.0877 8.97238 13.9011 9.20601 13.7209 9.4099C13.3584 9.81344 13.1104 10.1596 12.928 10.3869C12.7457 10.6163 12.6503 10.7395 12.6503 10.7395C12.6503 10.7395 12.7245 10.6014 12.8623 10.3444C13.0086 10.0917 13.1909 9.69875 13.5026 9.24636C13.6552 9.01911 13.81 8.75574 14.005 8.48813C14.2 8.22052 14.4205 7.93804 14.6516 7.63008C14.9018 7.33911 15.1689 7.0269 15.4509 6.69982C15.7477 6.38548 16.0741 6.06902 16.4133 5.73557C16.5914 5.5784 16.7737 5.41698 16.9603 5.25344C17.1469 5.0899 17.3334 4.91787 17.539 4.76495C17.9461 4.45061 18.368 4.12354 18.8301 3.83256C19.7354 3.21238 20.7614 2.66654 21.8617 2.19079C22.1394 2.08035 22.4214 1.96778 22.7055 1.85521C22.9874 1.74052 23.2842 1.65982 23.5768 1.55999C24.1598 1.34973 24.7746 1.22442 25.3873 1.0715C26.0127 0.969553 26.6275 0.827247 27.2826 0.780521L27.768 0.731676C27.9313 0.714685 28.0924 0.697691 28.245 0.695567L29.1757 0.661584L29.2923 0.657338H29.3496L29.4026 0.655212H29.4323L29.6718 0.66371L30.153 0.680698C30.4732 0.691318 30.7933 0.699813 31.1113 0.740167C31.4293 0.772025 31.7473 0.803886 32.0632 0.842116C32.3769 0.897337 32.6886 0.950437 33.0002 1.00353C34.2383 1.24566 35.4382 1.59185 36.547 2.05274C36.6869 2.10796 36.8247 2.16105 36.9646 2.21628C37.1003 2.27787 37.2339 2.34159 37.3674 2.40318C37.6345 2.52637 37.8995 2.64955 38.1561 2.78123C38.4083 2.92141 38.6564 3.06159 38.9023 3.19964C39.0231 3.26973 39.1482 3.33345 39.2648 3.40778C39.3814 3.48212 39.498 3.55858 39.6125 3.63292C39.8415 3.78159 40.0704 3.92601 40.2909 4.07468C40.505 4.23397 40.7149 4.38902 40.9205 4.54194C41.0223 4.6184 41.124 4.69698 41.2258 4.77132C41.3233 4.8499 41.4166 4.93486 41.512 5.01345C41.7007 5.17486 41.8851 5.33203 42.0653 5.48707C42.2498 5.63787 42.4067 5.8099 42.5741 5.96495C42.7374 6.12424 42.8942 6.27928 43.049 6.43008C43.3373 6.75291 43.6087 7.05663 43.8652 7.34336C44.1069 7.64283 44.3274 7.9253 44.5288 8.18866C44.7323 8.4499 44.8913 8.71539 45.0482 8.9384C45.3683 9.38654 45.557 9.77097 45.7075 10.0216C45.8517 10.2765 45.928 10.4124 45.928 10.4124L45.9301 10.406Z" fill="#273A8C"/>
<path d="M12.9789 31.783C12.9789 31.783 13.0786 31.9019 13.2651 32.1228C13.4517 32.3437 13.7125 32.6814 14.0813 33.068C14.2658 33.2612 14.4523 33.4885 14.6855 33.7094C14.9145 33.9345 15.1625 34.1766 15.4275 34.4357C15.7053 34.6779 16.0021 34.937 16.3137 35.2088C16.6444 35.4595 16.9709 35.7419 17.3377 36.0074C17.5221 36.137 17.7108 36.2687 17.9037 36.4046C18.0012 36.4704 18.0945 36.5426 18.1963 36.6064C18.298 36.668 18.4019 36.7317 18.5037 36.7954C18.7093 36.9249 18.9171 37.0545 19.1312 37.1883C19.3495 37.3094 19.5721 37.4326 19.7969 37.5557C19.9092 37.6173 20.0237 37.6789 20.1361 37.7427C20.2505 37.8042 20.3714 37.8552 20.4901 37.9126C20.7275 38.0251 20.9692 38.1377 21.213 38.2524C21.4611 38.3543 21.7133 38.4563 21.9677 38.5603C22.0949 38.6134 22.2221 38.6644 22.3493 38.7175C22.4808 38.7621 22.6122 38.8067 22.7437 38.8513C23.7909 39.24 24.9188 39.4906 26.0657 39.6966C26.354 39.7412 26.6445 39.7837 26.9349 39.8283C27.2275 39.8538 27.52 39.8814 27.8147 39.9069C28.1073 39.943 28.4041 39.9472 28.7009 39.9536L29.1439 39.9664L29.3665 39.9727H29.3814C29.3814 39.9727 29.4132 39.9727 29.3729 39.9727H29.4026L29.4598 39.9706L29.5743 39.9664L30.4944 39.9388C30.6513 39.9388 30.7933 39.9218 30.9375 39.9069L31.3699 39.8644C31.9445 39.8262 32.5296 39.7094 33.1062 39.6265C34.2468 39.3844 35.3661 39.1083 36.4092 38.709C37.4459 38.3012 38.4401 37.868 39.3284 37.3476C40.2294 36.8485 41.0287 36.2878 41.7579 35.7547C42.1077 35.468 42.4448 35.194 42.7628 34.9327C43.0702 34.6545 43.3607 34.3911 43.6341 34.1426C43.8928 33.8793 44.1323 33.6287 44.3613 33.4014C44.586 33.172 44.7726 32.9426 44.9528 32.7451C45.3153 32.3501 45.5655 32.0103 45.7478 31.7872C45.9301 31.5621 46.0276 31.4432 46.0276 31.4432C46.0276 31.4432 45.9534 31.5791 45.8156 31.8319C45.6693 32.0803 45.4849 32.469 45.1733 32.9129C45.0206 33.1359 44.8637 33.395 44.6708 33.6605C44.4758 33.9239 44.2553 34.2021 44.0242 34.5037C43.7741 34.7904 43.5069 35.0963 43.2271 35.417C42.9303 35.725 42.6059 36.0372 42.2689 36.3642C42.0908 36.5193 41.9106 36.6765 41.7261 36.8357C41.5396 36.995 41.3551 37.1649 41.1495 37.3136C40.7446 37.6216 40.3269 37.9423 39.8669 38.229C38.9701 38.8386 37.9504 39.3738 36.8607 39.8411C36.5851 39.9494 36.3053 40.0598 36.0255 40.1703C35.7456 40.2828 35.4509 40.3614 35.1626 40.4612C34.586 40.6673 33.9754 40.7904 33.3712 40.9412C33.0638 40.9943 32.7543 41.0495 32.4448 41.1048C32.2879 41.1281 32.1374 41.1664 31.9763 41.1791L31.4971 41.228L31.0159 41.2768C30.8548 41.2938 30.6937 41.3108 30.5431 41.3129L29.6231 41.3448L29.5086 41.349H29.4513L29.4217 41.3511H29.3687L29.1312 41.3427L28.6563 41.3257C28.3383 41.315 28.0225 41.3065 27.7087 41.2683C27.3949 41.2365 27.0812 41.2025 26.7674 41.1706C26.4579 41.1175 26.1484 41.0644 25.841 41.0113C24.6156 40.7756 23.4263 40.4357 22.3281 39.9855C22.1903 39.9324 22.0525 39.8793 21.9147 39.8262C21.7812 39.7646 21.6476 39.7051 21.5141 39.6435C21.2491 39.5225 20.9883 39.4014 20.7318 39.274C20.4816 39.1359 20.2357 39 19.9919 38.8641C19.8711 38.7961 19.7481 38.7324 19.6315 38.6602C19.5149 38.5858 19.4004 38.5136 19.2859 38.4393C19.0591 38.2927 18.8344 38.1483 18.6118 38.0081C18.3998 37.8531 18.192 37.7002 17.9864 37.5494C17.8846 37.4729 17.7829 37.3986 17.6832 37.3242C17.5857 37.2478 17.4924 37.1649 17.397 37.0864C17.2105 36.9292 17.026 36.7742 16.8479 36.6212C16.6635 36.4747 16.5066 36.3048 16.3413 36.1519C16.1801 35.9968 16.0211 35.8439 15.8685 35.6952C15.5823 35.3788 15.3088 35.0793 15.0523 34.7989C14.8106 34.5058 14.5901 34.2276 14.3887 33.9685C14.1852 33.7115 14.0262 33.4524 13.8672 33.2315C13.5471 32.7919 13.3542 32.4138 13.2037 32.1674C13.0595 31.9168 12.9832 31.783 12.9832 31.783H12.9789Z" fill="#273A8C"/>
</g>
<defs>
<clipPath id="clip0_7_4">
<rect width="170" height="42" fill="white"/>
</clipPath>
</defs>
</svg>
